<?xml version="1.0" encoding="utf-8" standalone="no"?>
<!DOCTYPE svg PUBLIC "-//W3C//DTD SVG 1.1//EN"
  "http://www.w3.org/Graphics/SVG/1.1/DTD/svg11.dtd">
<!-- Created with matplotlib (https://matplotlib.org/) -->
<svg height="278.940078pt" version="1.1" viewBox="0 0 398.15 278.940078" width="398.15pt" xmlns="http://www.w3.org/2000/svg" xmlns:xlink="http://www.w3.org/1999/xlink">
 <metadata>
  <rdf:RDF xmlns:cc="http://creativecommons.org/ns#" xmlns:dc="http://purl.org/dc/elements/1.1/" xmlns:rdf="http://www.w3.org/1999/02/22-rdf-syntax-ns#">
   <cc:Work>
    <dc:type rdf:resource="http://purl.org/dc/dcmitype/StillImage"/>
    <dc:date>2021-01-22T21:35:58.463126</dc:date>
    <dc:format>image/svg+xml</dc:format>
    <dc:creator>
     <cc:Agent>
      <dc:title>Matplotlib v3.3.3, https://matplotlib.org/</dc:title>
     </cc:Agent>
    </dc:creator>
   </cc:Work>
  </rdf:RDF>
 </metadata>
 <defs>
  <style type="text/css">*{stroke-linecap:butt;stroke-linejoin:round;}</style>
 </defs>
 <g id="figure_1">
  <g id="patch_1">
   <path d="M 0 278.940078 
L 398.15 278.940078 
L 398.15 0 
L 0 0 
z
" style="fill:#ffffff;"/>
  </g>
  <g id="axes_1">
   <g id="patch_2">
    <path d="M 28.25 259.908047 
L 390.95 259.908047 
L 390.95 10.428047 
L 28.25 10.428047 
z
" style="fill:#ffffff;"/>
   </g>
   <g id="matplotlib.axis_1">
    <g id="xtick_1">
     <g id="line2d_1">
      <defs>
       <path d="M 0 0 
L 0 -3.5 
" id="m81f2ad1029" style="stroke:#000000;stroke-width:0.8;"/>
      </defs>
      <g>
       <use style="stroke:#000000;stroke-width:0.8;" x="73.5875" xlink:href="#m81f2ad1029" y="259.908047"/>
      </g>
     </g>
     <g id="text_1">
      <!-- A -->
      <g transform="translate(70.585859 269.864141)scale(0.09 -0.09)">
       <defs>
        <path d="M 44.4375 29.390625 
L 33.546875 61.078125 
L 21.96875 29.390625 
z
M 28.46875 71.734375 
L 39.453125 71.734375 
L 65.484375 0 
L 54.828125 0 
L 47.5625 21.484375 
L 19.1875 21.484375 
L 11.421875 0 
L 1.46875 0 
z
" id="Helvetica-65"/>
       </defs>
       <use xlink:href="#Helvetica-65"/>
      </g>
     </g>
    </g>
    <g id="xtick_2">
     <g id="line2d_2">
      <g>
       <use style="stroke:#000000;stroke-width:0.8;" x="164.2625" xlink:href="#m81f2ad1029" y="259.908047"/>
      </g>
     </g>
     <g id="text_2">
      <!-- B -->
      <g transform="translate(161.260859 269.864141)scale(0.09 -0.09)">
       <defs>
        <path d="M 34.578125 41.40625 
Q 40.71875 41.40625 44.140625 43.109375 
Q 49.515625 45.796875 49.515625 52.78125 
Q 49.515625 59.8125 43.796875 62.25 
Q 40.578125 63.625 34.234375 63.625 
L 16.890625 63.625 
L 16.890625 41.40625 
z
M 37.84375 8.296875 
Q 46.78125 8.296875 50.59375 13.484375 
Q 52.984375 16.75 52.984375 21.390625 
Q 52.984375 29.203125 46 32.03125 
Q 42.28125 33.546875 36.1875 33.546875 
L 16.890625 33.546875 
L 16.890625 8.296875 
z
M 7.375 71.734375 
L 38.1875 71.734375 
Q 50.78125 71.734375 56.109375 64.203125 
Q 59.234375 59.765625 59.234375 53.953125 
Q 59.234375 47.171875 55.375 42.828125 
Q 53.375 40.53125 49.609375 38.625 
Q 55.125 36.53125 57.859375 33.890625 
Q 62.703125 29.203125 62.703125 20.953125 
Q 62.703125 14.015625 58.34375 8.40625 
Q 51.859375 0 37.703125 0 
L 7.375 0 
z
" id="Helvetica-66"/>
       </defs>
       <use xlink:href="#Helvetica-66"/>
      </g>
     </g>
    </g>
    <g id="xtick_3">
     <g id="line2d_3">
      <g>
       <use style="stroke:#000000;stroke-width:0.8;" x="254.9375" xlink:href="#m81f2ad1029" y="259.908047"/>
      </g>
     </g>
     <g id="text_3">
      <!-- C -->
      <g transform="translate(251.687656 269.864141)scale(0.09 -0.09)">
       <defs>
        <path d="M 37.84375 73.6875 
Q 51.46875 73.6875 58.984375 66.5 
Q 66.5 59.328125 67.328125 50.203125 
L 57.859375 50.203125 
Q 56.25 57.125 51.4375 61.171875 
Q 46.625 65.234375 37.9375 65.234375 
Q 27.34375 65.234375 20.828125 57.78125 
Q 14.3125 50.34375 14.3125 34.96875 
Q 14.3125 22.359375 20.1875 14.515625 
Q 26.078125 6.6875 37.75 6.6875 
Q 48.484375 6.6875 54.109375 14.9375 
Q 57.078125 19.28125 58.546875 26.375 
L 68.015625 26.375 
Q 66.75 15.046875 59.625 7.375 
Q 51.078125 -1.859375 36.578125 -1.859375 
Q 24.078125 -1.859375 15.578125 5.71875 
Q 4.390625 15.71875 4.390625 36.625 
Q 4.390625 52.484375 12.796875 62.640625 
Q 21.875 73.6875 37.84375 73.6875 
z
M 35.890625 73.6875 
z
" id="Helvetica-67"/>
       </defs>
       <use xlink:href="#Helvetica-67"/>
      </g>
     </g>
    </g>
    <g id="xtick_4">
     <g id="line2d_4">
      <g>
       <use style="stroke:#000000;stroke-width:0.8;" x="345.6125" xlink:href="#m81f2ad1029" y="259.908047"/>
      </g>
     </g>
     <g id="text_4">
      <!-- D -->
      <g transform="translate(342.362656 269.864141)scale(0.09 -0.09)">
       <defs>
        <path d="M 35.15625 8.296875 
Q 40.09375 8.296875 43.265625 9.328125 
Q 48.921875 11.234375 52.546875 16.65625 
Q 55.421875 21 56.6875 27.78125 
Q 57.421875 31.84375 57.421875 35.296875 
Q 57.421875 48.640625 52.125 56 
Q 46.828125 63.375 35.0625 63.375 
L 17.828125 63.375 
L 17.828125 8.296875 
z
M 8.0625 71.734375 
L 37.109375 71.734375 
Q 51.90625 71.734375 60.0625 61.234375 
Q 67.328125 51.765625 67.328125 36.96875 
Q 67.328125 25.53125 63.03125 16.3125 
Q 55.46875 0 37.015625 0 
L 8.0625 0 
z
" id="Helvetica-68"/>
       </defs>
       <use xlink:href="#Helvetica-68"/>
      </g>
     </g>
    </g>
   </g>
   <g id="matplotlib.axis_2">
    <g id="ytick_1">
     <g id="line2d_5">
      <defs>
       <path d="M 0 0 
L 3.5 0 
" id="m9b302aa95d" style="stroke:#000000;stroke-width:0.8;"/>
      </defs>
      <g>
       <use style="stroke:#000000;stroke-width:0.8;" x="28.25" xlink:href="#m9b302aa95d" y="259.908047"/>
      </g>
     </g>
     <g id="text_5">
      <!-- $\mathdefault{10^{-2}}$ -->
      <g transform="translate(7.2 263.136094)scale(0.09 -0.09)">
       <defs>
        <path d="M 9.578125 49.515625 
L 9.578125 56.25 
Q 19.09375 57.171875 22.84375 59.34375 
Q 26.609375 61.53125 28.46875 69.625 
L 35.40625 69.625 
L 35.40625 0 
L 26.03125 0 
L 26.03125 49.515625 
z
" id="Helvetica-49"/>
        <path d="M 27.046875 69.921875 
Q 40.625 69.921875 46.6875 58.734375 
Q 51.375 50.09375 51.375 35.0625 
Q 51.375 20.796875 47.125 11.46875 
Q 40.96875 -1.90625 27 -1.90625 
Q 14.40625 -1.90625 8.25 9.03125 
Q 3.125 18.171875 3.125 33.546875 
Q 3.125 45.453125 6.203125 54 
Q 11.96875 69.921875 27.046875 69.921875 
z
M 26.953125 6.109375 
Q 33.796875 6.109375 37.84375 12.15625 
Q 41.890625 18.21875 41.890625 34.71875 
Q 41.890625 46.625 38.953125 54.3125 
Q 36.03125 62.015625 27.59375 62.015625 
Q 19.828125 62.015625 16.234375 54.703125 
Q 12.640625 47.40625 12.640625 33.203125 
Q 12.640625 22.515625 14.9375 16.015625 
Q 18.453125 6.109375 26.953125 6.109375 
z
" id="Helvetica-48"/>
        <path d="M 55.421875 29.59375 
L 55.421875 21.390625 
L 4.5 21.390625 
L 4.5 29.59375 
z
" id="Helvetica-8722"/>
        <path d="M 3.125 0 
Q 3.609375 9.03125 6.859375 15.71875 
Q 10.109375 22.40625 19.53125 27.875 
L 28.90625 33.296875 
Q 35.203125 36.96875 37.75 39.546875 
Q 41.75 43.609375 41.75 48.828125 
Q 41.75 54.9375 38.078125 58.515625 
Q 34.421875 62.109375 28.328125 62.109375 
Q 19.28125 62.109375 15.828125 55.28125 
Q 13.96875 51.609375 13.765625 45.125 
L 4.828125 45.125 
Q 4.984375 54.25 8.203125 60.015625 
Q 13.921875 70.171875 28.375 70.171875 
Q 40.375 70.171875 45.921875 63.671875 
Q 51.46875 57.171875 51.46875 49.21875 
Q 51.46875 40.828125 45.5625 34.859375 
Q 42.140625 31.390625 33.296875 26.46875 
L 26.609375 22.75 
Q 21.828125 20.125 19.09375 17.71875 
Q 14.203125 13.484375 12.9375 8.296875 
L 51.125 8.296875 
L 51.125 0 
L 3.125 0 
z
" id="Helvetica-50"/>
       </defs>
       <use transform="translate(0 0.271875)" xlink:href="#Helvetica-49"/>
       <use transform="translate(55.615234 0.271875)" xlink:href="#Helvetica-48"/>
       <use transform="translate(112.145664 36.879688)scale(0.7)" xlink:href="#Helvetica-8722"/>
       <use transform="translate(153.02457 36.879688)scale(0.7)" xlink:href="#Helvetica-50"/>
      </g>
     </g>
    </g>
    <g id="ytick_2">
     <g id="line2d_6">
      <g>
       <use style="stroke:#000000;stroke-width:0.8;" x="28.25" xlink:href="#m9b302aa95d" y="197.538047"/>
      </g>
     </g>
     <g id="text_6">
      <!-- $\mathdefault{10^{-1}}$ -->
      <g transform="translate(7.2 200.766094)scale(0.09 -0.09)">
       <use transform="translate(0 0.654688)" xlink:href="#Helvetica-49"/>
       <use transform="translate(55.615234 0.654688)" xlink:href="#Helvetica-48"/>
       <use transform="translate(112.145664 37.2625)scale(0.7)" xlink:href="#Helvetica-8722"/>
       <use transform="translate(153.02457 37.2625)scale(0.7)" xlink:href="#Helvetica-49"/>
      </g>
     </g>
    </g>
    <g id="ytick_3">
     <g id="line2d_7">
      <g>
       <use style="stroke:#000000;stroke-width:0.8;" x="28.25" xlink:href="#m9b302aa95d" y="135.168047"/>
      </g>
     </g>
     <g id="text_7">
      <!-- $\mathdefault{10^{0}}$ -->
      <g transform="translate(10.89 138.396094)scale(0.09 -0.09)">
       <use transform="translate(0 0.446875)" xlink:href="#Helvetica-49"/>
       <use transform="translate(55.615234 0.446875)" xlink:href="#Helvetica-48"/>
       <use transform="translate(112.145664 37.054688)scale(0.7)" xlink:href="#Helvetica-48"/>
      </g>
     </g>
    </g>
    <g id="ytick_4">
     <g id="line2d_8">
      <g>
       <use style="stroke:#000000;stroke-width:0.8;" x="28.25" xlink:href="#m9b302aa95d" y="72.798047"/>
      </g>
     </g>
     <g id="text_8">
      <!-- $\mathdefault{10^{1}}$ -->
      <g transform="translate(10.89 76.026094)scale(0.09 -0.09)">
       <use transform="translate(0 0.654688)" xlink:href="#Helvetica-49"/>
       <use transform="translate(55.615234 0.654688)" xlink:href="#Helvetica-48"/>
       <use transform="translate(112.145664 37.2625)scale(0.7)" xlink:href="#Helvetica-49"/>
      </g>
     </g>
    </g>
    <g id="ytick_5">
     <g id="line2d_9">
      <g>
       <use style="stroke:#000000;stroke-width:0.8;" x="28.25" xlink:href="#m9b302aa95d" y="10.428047"/>
      </g>
     </g>
     <g id="text_9">
      <!-- $\mathdefault{10^{2}}$ -->
      <g transform="translate(10.89 13.656094)scale(0.09 -0.09)">
       <use transform="translate(0 0.271875)" xlink:href="#Helvetica-49"/>
       <use transform="translate(55.615234 0.271875)" xlink:href="#Helvetica-48"/>
       <use transform="translate(112.145664 36.879688)scale(0.7)" xlink:href="#Helvetica-50"/>
      </g>
     </g>
    </g>
    <g id="ytick_6">
     <g id="line2d_10">
      <defs>
       <path d="M 0 0 
L 2 0 
" id="m9f9fe51d9f" style="stroke:#000000;stroke-width:0.6;"/>
      </defs>
      <g>
       <use style="stroke:#000000;stroke-width:0.6;" x="28.25" xlink:href="#m9f9fe51d9f" y="241.132806"/>
      </g>
     </g>
    </g>
    <g id="ytick_7">
     <g id="line2d_11">
      <g>
       <use style="stroke:#000000;stroke-width:0.6;" x="28.25" xlink:href="#m9f9fe51d9f" y="230.149994"/>
      </g>
     </g>
    </g>
    <g id="ytick_8">
     <g id="line2d_12">
      <g>
       <use style="stroke:#000000;stroke-width:0.6;" x="28.25" xlink:href="#m9f9fe51d9f" y="222.357565"/>
      </g>
     </g>
    </g>
    <g id="ytick_9">
     <g id="line2d_13">
      <g>
       <use style="stroke:#000000;stroke-width:0.6;" x="28.25" xlink:href="#m9f9fe51d9f" y="216.313288"/>
      </g>
     </g>
    </g>
    <g id="ytick_10">
     <g id="line2d_14">
      <g>
       <use style="stroke:#000000;stroke-width:0.6;" x="28.25" xlink:href="#m9f9fe51d9f" y="211.374753"/>
      </g>
     </g>
    </g>
    <g id="ytick_11">
     <g id="line2d_15">
      <g>
       <use style="stroke:#000000;stroke-width:0.6;" x="28.25" xlink:href="#m9f9fe51d9f" y="207.199282"/>
      </g>
     </g>
    </g>
    <g id="ytick_12">
     <g id="line2d_16">
      <g>
       <use style="stroke:#000000;stroke-width:0.6;" x="28.25" xlink:href="#m9f9fe51d9f" y="203.582324"/>
      </g>
     </g>
    </g>
    <g id="ytick_13">
     <g id="line2d_17">
      <g>
       <use style="stroke:#000000;stroke-width:0.6;" x="28.25" xlink:href="#m9f9fe51d9f" y="200.391942"/>
      </g>
     </g>
    </g>
    <g id="ytick_14">
     <g id="line2d_18">
      <g>
       <use style="stroke:#000000;stroke-width:0.6;" x="28.25" xlink:href="#m9f9fe51d9f" y="178.762806"/>
      </g>
     </g>
    </g>
    <g id="ytick_15">
     <g id="line2d_19">
      <g>
       <use style="stroke:#000000;stroke-width:0.6;" x="28.25" xlink:href="#m9f9fe51d9f" y="167.779994"/>
      </g>
     </g>
    </g>
    <g id="ytick_16">
     <g id="line2d_20">
      <g>
       <use style="stroke:#000000;stroke-width:0.6;" x="28.25" xlink:href="#m9f9fe51d9f" y="159.987565"/>
      </g>
     </g>
    </g>
    <g id="ytick_17">
     <g id="line2d_21">
      <g>
       <use style="stroke:#000000;stroke-width:0.6;" x="28.25" xlink:href="#m9f9fe51d9f" y="153.943288"/>
      </g>
     </g>
    </g>
    <g id="ytick_18">
     <g id="line2d_22">
      <g>
       <use style="stroke:#000000;stroke-width:0.6;" x="28.25" xlink:href="#m9f9fe51d9f" y="149.004753"/>
      </g>
     </g>
    </g>
    <g id="ytick_19">
     <g id="line2d_23">
      <g>
       <use style="stroke:#000000;stroke-width:0.6;" x="28.25" xlink:href="#m9f9fe51d9f" y="144.829282"/>
      </g>
     </g>
    </g>
    <g id="ytick_20">
     <g id="line2d_24">
      <g>
       <use style="stroke:#000000;stroke-width:0.6;" x="28.25" xlink:href="#m9f9fe51d9f" y="141.212324"/>
      </g>
     </g>
    </g>
    <g id="ytick_21">
     <g id="line2d_25">
      <g>
       <use style="stroke:#000000;stroke-width:0.6;" x="28.25" xlink:href="#m9f9fe51d9f" y="138.021942"/>
      </g>
     </g>
    </g>
    <g id="ytick_22">
     <g id="line2d_26">
      <g>
       <use style="stroke:#000000;stroke-width:0.6;" x="28.25" xlink:href="#m9f9fe51d9f" y="116.392806"/>
      </g>
     </g>
    </g>
    <g id="ytick_23">
     <g id="line2d_27">
      <g>
       <use style="stroke:#000000;stroke-width:0.6;" x="28.25" xlink:href="#m9f9fe51d9f" y="105.409994"/>
      </g>
     </g>
    </g>
    <g id="ytick_24">
     <g id="line2d_28">
      <g>
       <use style="stroke:#000000;stroke-width:0.6;" x="28.25" xlink:href="#m9f9fe51d9f" y="97.617565"/>
      </g>
     </g>
    </g>
    <g id="ytick_25">
     <g id="line2d_29">
      <g>
       <use style="stroke:#000000;stroke-width:0.6;" x="28.25" xlink:href="#m9f9fe51d9f" y="91.573288"/>
      </g>
     </g>
    </g>
    <g id="ytick_26">
     <g id="line2d_30">
      <g>
       <use style="stroke:#000000;stroke-width:0.6;" x="28.25" xlink:href="#m9f9fe51d9f" y="86.634753"/>
      </g>
     </g>
    </g>
    <g id="ytick_27">
     <g id="line2d_31">
      <g>
       <use style="stroke:#000000;stroke-width:0.6;" x="28.25" xlink:href="#m9f9fe51d9f" y="82.459282"/>
      </g>
     </g>
    </g>
    <g id="ytick_28">
     <g id="line2d_32">
      <g>
       <use style="stroke:#000000;stroke-width:0.6;" x="28.25" xlink:href="#m9f9fe51d9f" y="78.842324"/>
      </g>
     </g>
    </g>
    <g id="ytick_29">
     <g id="line2d_33">
      <g>
       <use style="stroke:#000000;stroke-width:0.6;" x="28.25" xlink:href="#m9f9fe51d9f" y="75.651942"/>
      </g>
     </g>
    </g>
    <g id="ytick_30">
     <g id="line2d_34">
      <g>
       <use style="stroke:#000000;stroke-width:0.6;" x="28.25" xlink:href="#m9f9fe51d9f" y="54.022806"/>
      </g>
     </g>
    </g>
    <g id="ytick_31">
     <g id="line2d_35">
      <g>
       <use style="stroke:#000000;stroke-width:0.6;" x="28.25" xlink:href="#m9f9fe51d9f" y="43.039994"/>
      </g>
     </g>
    </g>
    <g id="ytick_32">
     <g id="line2d_36">
      <g>
       <use style="stroke:#000000;stroke-width:0.6;" x="28.25" xlink:href="#m9f9fe51d9f" y="35.247565"/>
      </g>
     </g>
    </g>
    <g id="ytick_33">
     <g id="line2d_37">
      <g>
       <use style="stroke:#000000;stroke-width:0.6;" x="28.25" xlink:href="#m9f9fe51d9f" y="29.203288"/>
      </g>
     </g>
    </g>
    <g id="ytick_34">
     <g id="line2d_38">
      <g>
       <use style="stroke:#000000;stroke-width:0.6;" x="28.25" xlink:href="#m9f9fe51d9f" y="24.264753"/>
      </g>
     </g>
    </g>
    <g id="ytick_35">
     <g id="line2d_39">
      <g>
       <use style="stroke:#000000;stroke-width:0.6;" x="28.25" xlink:href="#m9f9fe51d9f" y="20.089282"/>
      </g>
     </g>
    </g>
    <g id="ytick_36">
     <g id="line2d_40">
      <g>
       <use style="stroke:#000000;stroke-width:0.6;" x="28.25" xlink:href="#m9f9fe51d9f" y="16.472324"/>
      </g>
     </g>
    </g>
    <g id="ytick_37">
     <g id="line2d_41">
      <g>
       <use style="stroke:#000000;stroke-width:0.6;" x="28.25" xlink:href="#m9f9fe51d9f" y="13.281942"/>
      </g>
     </g>
    </g>
   </g>
   <g id="line2d_42">
    <path clip-path="url(#p0e52a55fc9)" d="M 53.185625 157.01314 
L 93.989375 157.01314 
L 93.989375 122.923734 
L 53.185625 122.923734 
L 53.185625 157.01314 
" style="fill:none;stroke:#000000;stroke-linecap:square;"/>
   </g>
   <g id="line2d_43">
    <path clip-path="url(#p0e52a55fc9)" d="M 73.5875 157.01314 
L 73.5875 197.575937 
" style="fill:none;stroke:#000000;stroke-linecap:square;"/>
   </g>
   <g id="line2d_44">
    <path clip-path="url(#p0e52a55fc9)" d="M 73.5875 122.923734 
L 73.5875 104.444068 
" style="fill:none;stroke:#000000;stroke-linecap:square;"/>
   </g>
   <g id="line2d_45">
    <path clip-path="url(#p0e52a55fc9)" d="M 63.386562 197.575937 
L 83.788438 197.575937 
" style="fill:none;stroke:#000000;stroke-linecap:square;"/>
   </g>
   <g id="line2d_46">
    <path clip-path="url(#p0e52a55fc9)" d="M 63.386562 104.444068 
L 83.788438 104.444068 
" style="fill:none;stroke:#000000;stroke-linecap:square;"/>
   </g>
   <g id="line2d_47">
    <defs>
     <path d="M 0 3 
C 0.795609 3 1.55874 2.683901 2.12132 2.12132 
C 2.683901 1.55874 3 0.795609 3 0 
C 3 -0.795609 2.683901 -1.55874 2.12132 -2.12132 
C 1.55874 -2.683901 0.795609 -3 0 -3 
C -0.795609 -3 -1.55874 -2.683901 -2.12132 -2.12132 
C -2.683901 -1.55874 -3 -0.795609 -3 0 
C -3 0.795609 -2.683901 1.55874 -2.12132 2.12132 
C -1.55874 2.683901 -0.795609 3 0 3 
z
" id="m3389008ab2" style="stroke:#000000;"/>
    </defs>
    <g clip-path="url(#p0e52a55fc9)">
     <use style="fill-opacity:0;stroke:#000000;" x="73.5875" xlink:href="#m3389008ab2" y="94.543257"/>
     <use style="fill-opacity:0;stroke:#000000;" x="73.5875" xlink:href="#m3389008ab2" y="77.368644"/>
    </g>
   </g>
   <g id="line2d_48">
    <path clip-path="url(#p0e52a55fc9)" d="M 143.860625 155.165119 
L 184.664375 155.165119 
L 184.664375 116.890797 
L 143.860625 116.890797 
L 143.860625 155.165119 
" style="fill:none;stroke:#000000;stroke-linecap:square;"/>
   </g>
   <g id="line2d_49">
    <path clip-path="url(#p0e52a55fc9)" d="M 164.2625 155.165119 
L 164.2625 172.471684 
" style="fill:none;stroke:#000000;stroke-linecap:square;"/>
   </g>
   <g id="line2d_50">
    <path clip-path="url(#p0e52a55fc9)" d="M 164.2625 116.890797 
L 164.2625 100.502363 
" style="fill:none;stroke:#000000;stroke-linecap:square;"/>
   </g>
   <g id="line2d_51">
    <path clip-path="url(#p0e52a55fc9)" d="M 154.061562 172.471684 
L 174.463437 172.471684 
" style="fill:none;stroke:#000000;stroke-linecap:square;"/>
   </g>
   <g id="line2d_52">
    <path clip-path="url(#p0e52a55fc9)" d="M 154.061562 100.502363 
L 174.463437 100.502363 
" style="fill:none;stroke:#000000;stroke-linecap:square;"/>
   </g>
   <g id="line2d_53">
    <g clip-path="url(#p0e52a55fc9)">
     <use style="fill-opacity:0;stroke:#000000;" x="164.2625" xlink:href="#m3389008ab2" y="84.630299"/>
    </g>
   </g>
   <g id="line2d_54">
    <path clip-path="url(#p0e52a55fc9)" d="M 234.535625 146.099448 
L 275.339375 146.099448 
L 275.339375 114.799234 
L 234.535625 114.799234 
L 234.535625 146.099448 
" style="fill:none;stroke:#000000;stroke-linecap:square;"/>
   </g>
   <g id="line2d_55">
    <path clip-path="url(#p0e52a55fc9)" d="M 254.9375 146.099448 
L 254.9375 181.574658 
" style="fill:none;stroke:#000000;stroke-linecap:square;"/>
   </g>
   <g id="line2d_56">
    <path clip-path="url(#p0e52a55fc9)" d="M 254.9375 114.799234 
L 254.9375 102.894808 
" style="fill:none;stroke:#000000;stroke-linecap:square;"/>
   </g>
   <g id="line2d_57">
    <path clip-path="url(#p0e52a55fc9)" d="M 244.736563 181.574658 
L 265.138438 181.574658 
" style="fill:none;stroke:#000000;stroke-linecap:square;"/>
   </g>
   <g id="line2d_58">
    <path clip-path="url(#p0e52a55fc9)" d="M 244.736563 102.894808 
L 265.138438 102.894808 
" style="fill:none;stroke:#000000;stroke-linecap:square;"/>
   </g>
   <g id="line2d_59">
    <g clip-path="url(#p0e52a55fc9)">
     <use style="fill-opacity:0;stroke:#000000;" x="254.9375" xlink:href="#m3389008ab2" y="90.828623"/>
     <use style="fill-opacity:0;stroke:#000000;" x="254.9375" xlink:href="#m3389008ab2" y="89.383557"/>
     <use style="fill-opacity:0;stroke:#000000;" x="254.9375" xlink:href="#m3389008ab2" y="67.622223"/>
    </g>
   </g>
   <g id="line2d_60">
    <path clip-path="url(#p0e52a55fc9)" d="M 325.210625 154.082971 
L 366.014375 154.082971 
L 366.014375 115.32014 
L 325.210625 115.32014 
L 325.210625 154.082971 
" style="fill:none;stroke:#000000;stroke-linecap:square;"/>
   </g>
   <g id="line2d_61">
    <path clip-path="url(#p0e52a55fc9)" d="M 345.6125 154.082971 
L 345.6125 192.899717 
" style="fill:none;stroke:#000000;stroke-linecap:square;"/>
   </g>
   <g id="line2d_62">
    <path clip-path="url(#p0e52a55fc9)" d="M 345.6125 115.32014 
L 345.6125 98.485453 
" style="fill:none;stroke:#000000;stroke-linecap:square;"/>
   </g>
   <g id="line2d_63">
    <path clip-path="url(#p0e52a55fc9)" d="M 335.411563 192.899717 
L 355.813438 192.899717 
" style="fill:none;stroke:#000000;stroke-linecap:square;"/>
   </g>
   <g id="line2d_64">
    <path clip-path="url(#p0e52a55fc9)" d="M 335.411563 98.485453 
L 355.813438 98.485453 
" style="fill:none;stroke:#000000;stroke-linecap:square;"/>
   </g>
   <g id="line2d_65">
    <g clip-path="url(#p0e52a55fc9)">
     <use style="fill-opacity:0;stroke:#000000;" x="345.6125" xlink:href="#m3389008ab2" y="93.835544"/>
     <use style="fill-opacity:0;stroke:#000000;" x="345.6125" xlink:href="#m3389008ab2" y="90.803815"/>
    </g>
   </g>
   <g id="line2d_66">
    <path clip-path="url(#p0e52a55fc9)" d="M 53.185625 140.504562 
L 93.989375 140.504562 
" style="fill:none;stroke:#000000;stroke-linecap:square;"/>
   </g>
   <g id="line2d_67">
    <path clip-path="url(#p0e52a55fc9)" d="M 143.860625 141.773352 
L 184.664375 141.773352 
" style="fill:none;stroke:#000000;stroke-linecap:square;"/>
   </g>
   <g id="line2d_68">
    <path clip-path="url(#p0e52a55fc9)" d="M 234.535625 131.06543 
L 275.339375 131.06543 
" style="fill:none;stroke:#000000;stroke-linecap:square;"/>
   </g>
   <g id="line2d_69">
    <path clip-path="url(#p0e52a55fc9)" d="M 325.210625 134.860407 
L 366.014375 134.860407 
" style="fill:none;stroke:#000000;stroke-linecap:square;"/>
   </g>
   <g id="patch_3">
    <path d="M 28.25 259.908047 
L 28.25 10.428047 
" style="fill:none;stroke:#000000;stroke-linecap:square;stroke-linejoin:miter;stroke-width:0.8;"/>
   </g>
   <g id="patch_4">
    <path d="M 28.25 259.908047 
L 390.95 259.908047 
" style="fill:none;stroke:#000000;stroke-linecap:square;stroke-linejoin:miter;stroke-width:0.8;"/>
   </g>
  </g>
 </g>
 <defs>
  <clipPath id="p0e52a55fc9">
   <rect height="249.48" width="362.7" x="28.25" y="10.428047"/>
  </clipPath>
 </defs>
</svg>
