<?xml version="1.0" encoding="utf-8" standalone="no"?>
<!DOCTYPE svg PUBLIC "-//W3C//DTD SVG 1.1//EN"
  "http://www.w3.org/Graphics/SVG/1.1/DTD/svg11.dtd">
<!-- Created with matplotlib (https://matplotlib.org/) -->
<svg height="282.440078pt" version="1.1" viewBox="0 0 408.121562 282.440078" width="408.121562pt" xmlns="http://www.w3.org/2000/svg" xmlns:xlink="http://www.w3.org/1999/xlink">
 <metadata>
  <rdf:RDF xmlns:cc="http://creativecommons.org/ns#" xmlns:dc="http://purl.org/dc/elements/1.1/" xmlns:rdf="http://www.w3.org/1999/02/22-rdf-syntax-ns#">
   <cc:Work>
    <dc:type rdf:resource="http://purl.org/dc/dcmitype/StillImage"/>
    <dc:date>2021-01-29T20:11:48.897890</dc:date>
    <dc:format>image/svg+xml</dc:format>
    <dc:creator>
     <cc:Agent>
      <dc:title>Matplotlib v3.3.3, https://matplotlib.org/</dc:title>
     </cc:Agent>
    </dc:creator>
   </cc:Work>
  </rdf:RDF>
 </metadata>
 <defs>
  <style type="text/css">*{stroke-linecap:butt;stroke-linejoin:round;}</style>
 </defs>
 <g id="figure_1">
  <g id="patch_1">
   <path d="M 0 282.440078 
L 408.121562 282.440078 
L 408.121562 0 
L 0 0 
z
" style="fill:#ffffff;"/>
  </g>
  <g id="axes_1">
   <g id="patch_2">
    <path d="M 31.966563 259.908047 
L 394.666562 259.908047 
L 394.666562 10.428047 
L 31.966563 10.428047 
z
" style="fill:#ffffff;"/>
   </g>
   <g id="matplotlib.axis_1">
    <g id="xtick_1">
     <g id="line2d_1">
      <defs>
       <path d="M 0 0 
L 0 3.5 
" id="mf97443bad5" style="stroke:#000000;stroke-width:0.8;"/>
      </defs>
      <g>
       <use style="stroke:#000000;stroke-width:0.8;" x="31.966562" xlink:href="#mf97443bad5" y="259.908047"/>
      </g>
     </g>
     <g id="text_1">
      <!-- −0.5 -->
      <g transform="translate(23.083281 273.364141)scale(0.09 -0.09)">
       <defs>
        <path d="M 55.421875 29.59375 
L 55.421875 21.390625 
L 4.5 21.390625 
L 4.5 29.59375 
z
" id="Helvetica-8722"/>
        <path d="M 27.046875 69.921875 
Q 40.625 69.921875 46.6875 58.734375 
Q 51.375 50.09375 51.375 35.0625 
Q 51.375 20.796875 47.125 11.46875 
Q 40.96875 -1.90625 27 -1.90625 
Q 14.40625 -1.90625 8.25 9.03125 
Q 3.125 18.171875 3.125 33.546875 
Q 3.125 45.453125 6.203125 54 
Q 11.96875 69.921875 27.046875 69.921875 
z
M 26.953125 6.109375 
Q 33.796875 6.109375 37.84375 12.15625 
Q 41.890625 18.21875 41.890625 34.71875 
Q 41.890625 46.625 38.953125 54.3125 
Q 36.03125 62.015625 27.59375 62.015625 
Q 19.828125 62.015625 16.234375 54.703125 
Q 12.640625 47.40625 12.640625 33.203125 
Q 12.640625 22.515625 14.9375 16.015625 
Q 18.453125 6.109375 26.953125 6.109375 
z
" id="Helvetica-48"/>
        <path d="M 8.546875 10.640625 
L 18.75 10.640625 
L 18.75 0 
L 8.546875 0 
z
" id="Helvetica-46"/>
        <path d="M 12.359375 17.828125 
Q 13.234375 10.296875 19.34375 7.421875 
Q 22.46875 5.953125 26.5625 5.953125 
Q 34.375 5.953125 38.125 10.9375 
Q 41.890625 15.921875 41.890625 21.96875 
Q 41.890625 29.296875 37.421875 33.296875 
Q 32.953125 37.3125 26.703125 37.3125 
Q 22.171875 37.3125 18.921875 35.546875 
Q 15.671875 33.796875 13.375 30.671875 
L 5.765625 31.109375 
L 11.078125 68.75 
L 47.40625 68.75 
L 47.40625 60.25 
L 17.671875 60.25 
L 14.703125 40.828125 
Q 17.140625 42.671875 19.34375 43.609375 
Q 23.25 45.21875 28.375 45.21875 
Q 37.984375 45.21875 44.671875 39.015625 
Q 51.375 32.8125 51.375 23.296875 
Q 51.375 13.375 45.234375 5.796875 
Q 39.109375 -1.765625 25.6875 -1.765625 
Q 17.140625 -1.765625 10.5625 3.046875 
Q 4 7.859375 3.21875 17.828125 
z
" id="Helvetica-53"/>
       </defs>
       <use xlink:href="#Helvetica-8722"/>
       <use x="58.398438" xlink:href="#Helvetica-48"/>
       <use x="114.013672" xlink:href="#Helvetica-46"/>
       <use x="141.796875" xlink:href="#Helvetica-53"/>
      </g>
     </g>
    </g>
    <g id="xtick_2">
     <g id="line2d_2">
      <g>
       <use style="stroke:#000000;stroke-width:0.8;" x="72.266562" xlink:href="#mf97443bad5" y="259.908047"/>
      </g>
     </g>
     <g id="text_2">
      <!-- 0.0 -->
      <g transform="translate(66.011562 273.364141)scale(0.09 -0.09)">
       <use xlink:href="#Helvetica-48"/>
       <use x="55.615234" xlink:href="#Helvetica-46"/>
       <use x="83.398438" xlink:href="#Helvetica-48"/>
      </g>
     </g>
    </g>
    <g id="xtick_3">
     <g id="line2d_3">
      <g>
       <use style="stroke:#000000;stroke-width:0.8;" x="112.566562" xlink:href="#mf97443bad5" y="259.908047"/>
      </g>
     </g>
     <g id="text_3">
      <!-- 0.5 -->
      <g transform="translate(106.311562 273.364141)scale(0.09 -0.09)">
       <use xlink:href="#Helvetica-48"/>
       <use x="55.615234" xlink:href="#Helvetica-46"/>
       <use x="83.398438" xlink:href="#Helvetica-53"/>
      </g>
     </g>
    </g>
    <g id="xtick_4">
     <g id="line2d_4">
      <g>
       <use style="stroke:#000000;stroke-width:0.8;" x="152.866562" xlink:href="#mf97443bad5" y="259.908047"/>
      </g>
     </g>
     <g id="text_4">
      <!-- 1.0 -->
      <g transform="translate(146.611562 273.364141)scale(0.09 -0.09)">
       <defs>
        <path d="M 9.578125 49.515625 
L 9.578125 56.25 
Q 19.09375 57.171875 22.84375 59.34375 
Q 26.609375 61.53125 28.46875 69.625 
L 35.40625 69.625 
L 35.40625 0 
L 26.03125 0 
L 26.03125 49.515625 
z
" id="Helvetica-49"/>
       </defs>
       <use xlink:href="#Helvetica-49"/>
       <use x="55.615234" xlink:href="#Helvetica-46"/>
       <use x="83.398438" xlink:href="#Helvetica-48"/>
      </g>
     </g>
    </g>
    <g id="xtick_5">
     <g id="line2d_5">
      <g>
       <use style="stroke:#000000;stroke-width:0.8;" x="193.166562" xlink:href="#mf97443bad5" y="259.908047"/>
      </g>
     </g>
     <g id="text_5">
      <!-- 1.5 -->
      <g transform="translate(186.911563 273.364141)scale(0.09 -0.09)">
       <use xlink:href="#Helvetica-49"/>
       <use x="55.615234" xlink:href="#Helvetica-46"/>
       <use x="83.398438" xlink:href="#Helvetica-53"/>
      </g>
     </g>
    </g>
    <g id="xtick_6">
     <g id="line2d_6">
      <g>
       <use style="stroke:#000000;stroke-width:0.8;" x="233.466562" xlink:href="#mf97443bad5" y="259.908047"/>
      </g>
     </g>
     <g id="text_6">
      <!-- 2.0 -->
      <g transform="translate(227.211562 273.364141)scale(0.09 -0.09)">
       <defs>
        <path d="M 3.125 0 
Q 3.609375 9.03125 6.859375 15.71875 
Q 10.109375 22.40625 19.53125 27.875 
L 28.90625 33.296875 
Q 35.203125 36.96875 37.75 39.546875 
Q 41.75 43.609375 41.75 48.828125 
Q 41.75 54.9375 38.078125 58.515625 
Q 34.421875 62.109375 28.328125 62.109375 
Q 19.28125 62.109375 15.828125 55.28125 
Q 13.96875 51.609375 13.765625 45.125 
L 4.828125 45.125 
Q 4.984375 54.25 8.203125 60.015625 
Q 13.921875 70.171875 28.375 70.171875 
Q 40.375 70.171875 45.921875 63.671875 
Q 51.46875 57.171875 51.46875 49.21875 
Q 51.46875 40.828125 45.5625 34.859375 
Q 42.140625 31.390625 33.296875 26.46875 
L 26.609375 22.75 
Q 21.828125 20.125 19.09375 17.71875 
Q 14.203125 13.484375 12.9375 8.296875 
L 51.125 8.296875 
L 51.125 0 
L 3.125 0 
z
" id="Helvetica-50"/>
       </defs>
       <use xlink:href="#Helvetica-50"/>
       <use x="55.615234" xlink:href="#Helvetica-46"/>
       <use x="83.398438" xlink:href="#Helvetica-48"/>
      </g>
     </g>
    </g>
    <g id="xtick_7">
     <g id="line2d_7">
      <g>
       <use style="stroke:#000000;stroke-width:0.8;" x="273.766562" xlink:href="#mf97443bad5" y="259.908047"/>
      </g>
     </g>
     <g id="text_7">
      <!-- 2.5 -->
      <g transform="translate(267.511562 273.364141)scale(0.09 -0.09)">
       <use xlink:href="#Helvetica-50"/>
       <use x="55.615234" xlink:href="#Helvetica-46"/>
       <use x="83.398438" xlink:href="#Helvetica-53"/>
      </g>
     </g>
    </g>
    <g id="xtick_8">
     <g id="line2d_8">
      <g>
       <use style="stroke:#000000;stroke-width:0.8;" x="314.066562" xlink:href="#mf97443bad5" y="259.908047"/>
      </g>
     </g>
     <g id="text_8">
      <!-- 3.0 -->
      <g transform="translate(307.811562 273.364141)scale(0.09 -0.09)">
       <defs>
        <path d="M 25.984375 -1.90625 
Q 13.578125 -1.90625 7.984375 4.90625 
Q 2.390625 11.71875 2.390625 21.484375 
L 11.578125 21.484375 
Q 12.15625 14.703125 14.109375 11.625 
Q 17.53125 6.109375 26.46875 6.109375 
Q 33.40625 6.109375 37.59375 9.8125 
Q 41.796875 13.53125 41.796875 19.390625 
Q 41.796875 26.609375 37.375 29.484375 
Q 32.953125 32.375 25.09375 32.375 
Q 24.21875 32.375 23.3125 32.34375 
Q 22.40625 32.328125 21.484375 32.28125 
L 21.484375 40.046875 
Q 22.859375 39.890625 23.78125 39.84375 
Q 24.703125 39.796875 25.78125 39.796875 
Q 30.71875 39.796875 33.890625 41.359375 
Q 39.453125 44.09375 39.453125 51.125 
Q 39.453125 56.34375 35.734375 59.171875 
Q 32.03125 62.015625 27.09375 62.015625 
Q 18.3125 62.015625 14.9375 56.15625 
Q 13.09375 52.9375 12.84375 46.96875 
L 4.15625 46.96875 
Q 4.15625 54.78125 7.28125 60.25 
Q 12.640625 70.015625 26.171875 70.015625 
Q 36.859375 70.015625 42.71875 65.25 
Q 48.578125 60.5 48.578125 51.46875 
Q 48.578125 45.015625 45.125 41.015625 
Q 42.96875 38.53125 39.546875 37.109375 
Q 45.0625 35.59375 48.15625 31.265625 
Q 51.265625 26.953125 51.265625 20.703125 
Q 51.265625 10.6875 44.671875 4.390625 
Q 38.09375 -1.90625 25.984375 -1.90625 
z
" id="Helvetica-51"/>
       </defs>
       <use xlink:href="#Helvetica-51"/>
       <use x="55.615234" xlink:href="#Helvetica-46"/>
       <use x="83.398438" xlink:href="#Helvetica-48"/>
      </g>
     </g>
    </g>
    <g id="xtick_9">
     <g id="line2d_9">
      <g>
       <use style="stroke:#000000;stroke-width:0.8;" x="354.366562" xlink:href="#mf97443bad5" y="259.908047"/>
      </g>
     </g>
     <g id="text_9">
      <!-- 3.5 -->
      <g transform="translate(348.111562 273.364141)scale(0.09 -0.09)">
       <use xlink:href="#Helvetica-51"/>
       <use x="55.615234" xlink:href="#Helvetica-46"/>
       <use x="83.398438" xlink:href="#Helvetica-53"/>
      </g>
     </g>
    </g>
    <g id="xtick_10">
     <g id="line2d_10">
      <g>
       <use style="stroke:#000000;stroke-width:0.8;" x="394.666562" xlink:href="#mf97443bad5" y="259.908047"/>
      </g>
     </g>
     <g id="text_10">
      <!-- 4.0 -->
      <g transform="translate(388.411562 273.364141)scale(0.09 -0.09)">
       <defs>
        <path d="M 33.0625 24.75 
L 33.0625 56.453125 
L 10.640625 24.75 
z
M 33.203125 0 
L 33.203125 17.09375 
L 2.546875 17.09375 
L 2.546875 25.6875 
L 34.578125 70.125 
L 42 70.125 
L 42 24.75 
L 52.296875 24.75 
L 52.296875 17.09375 
L 42 17.09375 
L 42 0 
z
" id="Helvetica-52"/>
       </defs>
       <use xlink:href="#Helvetica-52"/>
       <use x="55.615234" xlink:href="#Helvetica-46"/>
       <use x="83.398438" xlink:href="#Helvetica-48"/>
      </g>
     </g>
    </g>
   </g>
   <g id="matplotlib.axis_2">
    <g id="ytick_1">
     <g id="line2d_11">
      <defs>
       <path d="M 0 0 
L -3.5 0 
" id="mdf2bf7a153" style="stroke:#000000;stroke-width:0.8;"/>
      </defs>
      <g>
       <use style="stroke:#000000;stroke-width:0.8;" x="31.966563" xlink:href="#mdf2bf7a153" y="259.908047"/>
      </g>
     </g>
     <g id="text_11">
      <!-- −0.4 -->
      <g transform="translate(7.2 263.136094)scale(0.09 -0.09)">
       <use xlink:href="#Helvetica-8722"/>
       <use x="58.398438" xlink:href="#Helvetica-48"/>
       <use x="114.013672" xlink:href="#Helvetica-46"/>
       <use x="141.796875" xlink:href="#Helvetica-52"/>
      </g>
     </g>
    </g>
    <g id="ytick_2">
     <g id="line2d_12">
      <g>
       <use style="stroke:#000000;stroke-width:0.8;" x="31.966563" xlink:href="#mdf2bf7a153" y="232.188047"/>
      </g>
     </g>
     <g id="text_12">
      <!-- −0.2 -->
      <g transform="translate(7.2 235.416094)scale(0.09 -0.09)">
       <use xlink:href="#Helvetica-8722"/>
       <use x="58.398438" xlink:href="#Helvetica-48"/>
       <use x="114.013672" xlink:href="#Helvetica-46"/>
       <use x="141.796875" xlink:href="#Helvetica-50"/>
      </g>
     </g>
    </g>
    <g id="ytick_3">
     <g id="line2d_13">
      <g>
       <use style="stroke:#000000;stroke-width:0.8;" x="31.966563" xlink:href="#mdf2bf7a153" y="204.468047"/>
      </g>
     </g>
     <g id="text_13">
      <!-- 0.0 -->
      <g transform="translate(12.456563 207.696094)scale(0.09 -0.09)">
       <use xlink:href="#Helvetica-48"/>
       <use x="55.615234" xlink:href="#Helvetica-46"/>
       <use x="83.398438" xlink:href="#Helvetica-48"/>
      </g>
     </g>
    </g>
    <g id="ytick_4">
     <g id="line2d_14">
      <g>
       <use style="stroke:#000000;stroke-width:0.8;" x="31.966563" xlink:href="#mdf2bf7a153" y="176.748047"/>
      </g>
     </g>
     <g id="text_14">
      <!-- 0.2 -->
      <g transform="translate(12.456563 179.976094)scale(0.09 -0.09)">
       <use xlink:href="#Helvetica-48"/>
       <use x="55.615234" xlink:href="#Helvetica-46"/>
       <use x="83.398438" xlink:href="#Helvetica-50"/>
      </g>
     </g>
    </g>
    <g id="ytick_5">
     <g id="line2d_15">
      <g>
       <use style="stroke:#000000;stroke-width:0.8;" x="31.966563" xlink:href="#mdf2bf7a153" y="149.028047"/>
      </g>
     </g>
     <g id="text_15">
      <!-- 0.4 -->
      <g transform="translate(12.456563 152.256094)scale(0.09 -0.09)">
       <use xlink:href="#Helvetica-48"/>
       <use x="55.615234" xlink:href="#Helvetica-46"/>
       <use x="83.398438" xlink:href="#Helvetica-52"/>
      </g>
     </g>
    </g>
    <g id="ytick_6">
     <g id="line2d_16">
      <g>
       <use style="stroke:#000000;stroke-width:0.8;" x="31.966563" xlink:href="#mdf2bf7a153" y="121.308047"/>
      </g>
     </g>
     <g id="text_16">
      <!-- 0.6 -->
      <g transform="translate(12.456563 124.536094)scale(0.09 -0.09)">
       <defs>
        <path d="M 29.25 70.21875 
Q 40.96875 70.21875 45.578125 64.140625 
Q 50.203125 58.0625 50.203125 51.609375 
L 41.5 51.609375 
Q 40.71875 55.765625 39.015625 58.109375 
Q 35.84375 62.5 29.390625 62.5 
Q 22.015625 62.5 17.671875 55.6875 
Q 13.328125 48.875 12.84375 36.1875 
Q 15.875 40.625 20.453125 42.828125 
Q 24.65625 44.78125 29.828125 44.78125 
Q 38.625 44.78125 45.15625 39.15625 
Q 51.703125 33.546875 51.703125 22.40625 
Q 51.703125 12.890625 45.5 5.53125 
Q 39.3125 -1.8125 27.828125 -1.8125 
Q 18.015625 -1.8125 10.890625 5.640625 
Q 3.765625 13.09375 3.765625 30.71875 
Q 3.765625 43.75 6.9375 52.828125 
Q 13.03125 70.21875 29.25 70.21875 
z
M 28.609375 6 
Q 35.546875 6 38.984375 10.65625 
Q 42.4375 15.328125 42.4375 21.6875 
Q 42.4375 27.046875 39.359375 31.90625 
Q 36.28125 36.765625 28.171875 36.765625 
Q 22.515625 36.765625 18.234375 33 
Q 13.96875 29.25 13.96875 21.6875 
Q 13.96875 15.046875 17.84375 10.515625 
Q 21.734375 6 28.609375 6 
z
" id="Helvetica-54"/>
       </defs>
       <use xlink:href="#Helvetica-48"/>
       <use x="55.615234" xlink:href="#Helvetica-46"/>
       <use x="83.398438" xlink:href="#Helvetica-54"/>
      </g>
     </g>
    </g>
    <g id="ytick_7">
     <g id="line2d_17">
      <g>
       <use style="stroke:#000000;stroke-width:0.8;" x="31.966563" xlink:href="#mdf2bf7a153" y="93.588047"/>
      </g>
     </g>
     <g id="text_17">
      <!-- 0.8 -->
      <g transform="translate(12.456563 96.816094)scale(0.09 -0.09)">
       <defs>
        <path d="M 27.203125 40.625 
Q 33.015625 40.625 36.28125 43.875 
Q 39.546875 47.125 39.546875 51.609375 
Q 39.546875 55.515625 36.421875 58.78125 
Q 33.296875 62.0625 26.90625 62.0625 
Q 20.5625 62.0625 17.71875 58.78125 
Q 14.890625 55.515625 14.890625 51.125 
Q 14.890625 46.1875 18.546875 43.40625 
Q 22.21875 40.625 27.203125 40.625 
z
M 27.734375 6 
Q 33.84375 6 37.859375 9.296875 
Q 41.890625 12.59375 41.890625 19.140625 
Q 41.890625 25.921875 37.734375 29.4375 
Q 33.59375 32.953125 27.09375 32.953125 
Q 20.796875 32.953125 16.8125 29.359375 
Q 12.84375 25.78125 12.84375 19.4375 
Q 12.84375 13.96875 16.484375 9.984375 
Q 20.125 6 27.734375 6 
z
M 15.234375 37.25 
Q 11.578125 38.8125 9.515625 40.921875 
Q 5.671875 44.828125 5.671875 51.078125 
Q 5.671875 58.890625 11.328125 64.5 
Q 17 70.125 27.390625 70.125 
Q 37.453125 70.125 43.15625 64.8125 
Q 48.875 59.515625 48.875 52.4375 
Q 48.875 45.90625 45.5625 41.84375 
Q 43.703125 39.546875 39.796875 37.359375 
Q 44.140625 35.359375 46.625 32.765625 
Q 51.265625 27.875 51.265625 20.0625 
Q 51.265625 10.84375 45.0625 4.421875 
Q 38.875 -2 27.546875 -2 
Q 17.328125 -2 10.265625 3.53125 
Q 3.21875 9.078125 3.21875 19.625 
Q 3.21875 25.828125 6.25 30.34375 
Q 9.28125 34.859375 15.234375 37.25 
z
" id="Helvetica-56"/>
       </defs>
       <use xlink:href="#Helvetica-48"/>
       <use x="55.615234" xlink:href="#Helvetica-46"/>
       <use x="83.398438" xlink:href="#Helvetica-56"/>
      </g>
     </g>
    </g>
    <g id="ytick_8">
     <g id="line2d_18">
      <g>
       <use style="stroke:#000000;stroke-width:0.8;" x="31.966563" xlink:href="#mdf2bf7a153" y="65.868047"/>
      </g>
     </g>
     <g id="text_18">
      <!-- 1.0 -->
      <g transform="translate(12.456563 69.096094)scale(0.09 -0.09)">
       <use xlink:href="#Helvetica-49"/>
       <use x="55.615234" xlink:href="#Helvetica-46"/>
       <use x="83.398438" xlink:href="#Helvetica-48"/>
      </g>
     </g>
    </g>
    <g id="ytick_9">
     <g id="line2d_19">
      <g>
       <use style="stroke:#000000;stroke-width:0.8;" x="31.966563" xlink:href="#mdf2bf7a153" y="38.148047"/>
      </g>
     </g>
     <g id="text_19">
      <!-- 1.2 -->
      <g transform="translate(12.456563 41.376094)scale(0.09 -0.09)">
       <use xlink:href="#Helvetica-49"/>
       <use x="55.615234" xlink:href="#Helvetica-46"/>
       <use x="83.398438" xlink:href="#Helvetica-50"/>
      </g>
     </g>
    </g>
    <g id="ytick_10">
     <g id="line2d_20">
      <g>
       <use style="stroke:#000000;stroke-width:0.8;" x="31.966563" xlink:href="#mdf2bf7a153" y="10.428047"/>
      </g>
     </g>
     <g id="text_20">
      <!-- 1.4 -->
      <g transform="translate(12.456563 13.656094)scale(0.09 -0.09)">
       <use xlink:href="#Helvetica-49"/>
       <use x="55.615234" xlink:href="#Helvetica-46"/>
       <use x="83.398438" xlink:href="#Helvetica-52"/>
      </g>
     </g>
    </g>
   </g>
   <g id="LineCollection_1">
    <path clip-path="url(#pfdbfaa86f4)" d="M 64.206562 79.057581 
L 96.446562 79.057581 
" style="fill:none;stroke:#000000;"/>
    <path clip-path="url(#pfdbfaa86f4)" d="M 104.506562 128.402754 
L 136.746562 128.402754 
" style="fill:none;stroke:#000000;"/>
    <path clip-path="url(#pfdbfaa86f4)" d="M 144.806562 158.332115 
L 177.046562 158.332115 
" style="fill:none;stroke:#000000;"/>
    <path clip-path="url(#pfdbfaa86f4)" d="M 185.106562 176.485189 
L 217.346562 176.485189 
" style="fill:none;stroke:#000000;"/>
    <path clip-path="url(#pfdbfaa86f4)" d="M 225.406562 187.495586 
L 257.646562 187.495586 
" style="fill:none;stroke:#000000;"/>
    <path clip-path="url(#pfdbfaa86f4)" d="M 265.706562 194.173729 
L 297.946563 194.173729 
" style="fill:none;stroke:#000000;"/>
    <path clip-path="url(#pfdbfaa86f4)" d="M 306.006562 198.224227 
L 338.246562 198.224227 
" style="fill:none;stroke:#000000;"/>
    <path clip-path="url(#pfdbfaa86f4)" d="M 346.306562 200.680979 
L 378.546562 200.680979 
" style="fill:none;stroke:#000000;"/>
   </g>
   <g id="LineCollection_2">
    <path clip-path="url(#pfdbfaa86f4)" d="M 80.326562 134.497581 
L 80.326562 23.617581 
" style="fill:none;stroke:#000000;"/>
    <path clip-path="url(#pfdbfaa86f4)" d="M 120.626562 183.842754 
L 120.626562 72.962754 
" style="fill:none;stroke:#000000;"/>
    <path clip-path="url(#pfdbfaa86f4)" d="M 160.926562 213.772115 
L 160.926562 102.892115 
" style="fill:none;stroke:#000000;"/>
    <path clip-path="url(#pfdbfaa86f4)" d="M 201.226562 231.925189 
L 201.226562 121.045189 
" style="fill:none;stroke:#000000;"/>
    <path clip-path="url(#pfdbfaa86f4)" d="M 241.526562 242.935586 
L 241.526562 132.055586 
" style="fill:none;stroke:#000000;"/>
    <path clip-path="url(#pfdbfaa86f4)" d="M 281.826563 249.613729 
L 281.826563 138.733729 
" style="fill:none;stroke:#000000;"/>
    <path clip-path="url(#pfdbfaa86f4)" d="M 322.126562 253.664227 
L 322.126562 142.784227 
" style="fill:none;stroke:#000000;"/>
    <path clip-path="url(#pfdbfaa86f4)" d="M 362.426562 256.120979 
L 362.426562 145.240979 
" style="fill:none;stroke:#000000;"/>
   </g>
   <g id="line2d_21">
    <defs>
     <path d="M 0 3 
L 0 -3 
" id="m31170fb74d" style="stroke:#000000;"/>
    </defs>
    <g clip-path="url(#pfdbfaa86f4)">
     <use style="stroke:#000000;" x="64.206562" xlink:href="#m31170fb74d" y="79.057581"/>
     <use style="stroke:#000000;" x="104.506562" xlink:href="#m31170fb74d" y="128.402754"/>
     <use style="stroke:#000000;" x="144.806562" xlink:href="#m31170fb74d" y="158.332115"/>
     <use style="stroke:#000000;" x="185.106562" xlink:href="#m31170fb74d" y="176.485189"/>
     <use style="stroke:#000000;" x="225.406562" xlink:href="#m31170fb74d" y="187.495586"/>
     <use style="stroke:#000000;" x="265.706562" xlink:href="#m31170fb74d" y="194.173729"/>
     <use style="stroke:#000000;" x="306.006562" xlink:href="#m31170fb74d" y="198.224227"/>
     <use style="stroke:#000000;" x="346.306562" xlink:href="#m31170fb74d" y="200.680979"/>
    </g>
   </g>
   <g id="line2d_22">
    <g clip-path="url(#pfdbfaa86f4)">
     <use style="stroke:#000000;" x="96.446562" xlink:href="#m31170fb74d" y="79.057581"/>
     <use style="stroke:#000000;" x="136.746562" xlink:href="#m31170fb74d" y="128.402754"/>
     <use style="stroke:#000000;" x="177.046562" xlink:href="#m31170fb74d" y="158.332115"/>
     <use style="stroke:#000000;" x="217.346562" xlink:href="#m31170fb74d" y="176.485189"/>
     <use style="stroke:#000000;" x="257.646562" xlink:href="#m31170fb74d" y="187.495586"/>
     <use style="stroke:#000000;" x="297.946563" xlink:href="#m31170fb74d" y="194.173729"/>
     <use style="stroke:#000000;" x="338.246562" xlink:href="#m31170fb74d" y="198.224227"/>
     <use style="stroke:#000000;" x="378.546562" xlink:href="#m31170fb74d" y="200.680979"/>
    </g>
   </g>
   <g id="line2d_23">
    <defs>
     <path d="M 3 0 
L -3 -0 
" id="m78f4de20d5" style="stroke:#000000;"/>
    </defs>
    <g clip-path="url(#pfdbfaa86f4)">
     <use style="stroke:#000000;" x="80.326562" xlink:href="#m78f4de20d5" y="134.497581"/>
     <use style="stroke:#000000;" x="120.626562" xlink:href="#m78f4de20d5" y="183.842754"/>
     <use style="stroke:#000000;" x="160.926562" xlink:href="#m78f4de20d5" y="213.772115"/>
     <use style="stroke:#000000;" x="201.226562" xlink:href="#m78f4de20d5" y="231.925189"/>
     <use style="stroke:#000000;" x="241.526562" xlink:href="#m78f4de20d5" y="242.935586"/>
     <use style="stroke:#000000;" x="281.826563" xlink:href="#m78f4de20d5" y="249.613729"/>
     <use style="stroke:#000000;" x="322.126562" xlink:href="#m78f4de20d5" y="253.664227"/>
     <use style="stroke:#000000;" x="362.426562" xlink:href="#m78f4de20d5" y="256.120979"/>
    </g>
   </g>
   <g id="line2d_24">
    <g clip-path="url(#pfdbfaa86f4)">
     <use style="stroke:#000000;" x="80.326562" xlink:href="#m78f4de20d5" y="23.617581"/>
     <use style="stroke:#000000;" x="120.626562" xlink:href="#m78f4de20d5" y="72.962754"/>
     <use style="stroke:#000000;" x="160.926562" xlink:href="#m78f4de20d5" y="102.892115"/>
     <use style="stroke:#000000;" x="201.226562" xlink:href="#m78f4de20d5" y="121.045189"/>
     <use style="stroke:#000000;" x="241.526562" xlink:href="#m78f4de20d5" y="132.055586"/>
     <use style="stroke:#000000;" x="281.826563" xlink:href="#m78f4de20d5" y="138.733729"/>
     <use style="stroke:#000000;" x="322.126562" xlink:href="#m78f4de20d5" y="142.784227"/>
     <use style="stroke:#000000;" x="362.426562" xlink:href="#m78f4de20d5" y="145.240979"/>
    </g>
   </g>
   <g id="line2d_25">
    <path clip-path="url(#pfdbfaa86f4)" d="M 80.326562 79.057581 
L 120.626562 128.402754 
L 160.926562 158.332115 
L 201.226562 176.485189 
L 241.526562 187.495586 
L 281.826563 194.173729 
L 322.126562 198.224227 
L 362.426562 200.680979 
" style="fill:none;stroke:#000000;stroke-linecap:square;"/>
   </g>
   <g id="patch_3">
    <path d="M 31.966563 259.908047 
L 31.966563 10.428047 
" style="fill:none;stroke:#000000;stroke-linecap:square;stroke-linejoin:miter;stroke-width:0.8;"/>
   </g>
   <g id="patch_4">
    <path d="M 31.966562 259.908047 
L 394.666562 259.908047 
" style="fill:none;stroke:#000000;stroke-linecap:square;stroke-linejoin:miter;stroke-width:0.8;"/>
   </g>
  </g>
 </g>
 <defs>
  <clipPath id="pfdbfaa86f4">
   <rect height="249.48" width="362.7" x="31.966563" y="10.428047"/>
  </clipPath>
 </defs>
</svg>
