<?xml version="1.0" encoding="utf-8" standalone="no"?>
<!DOCTYPE svg PUBLIC "-//W3C//DTD SVG 1.1//EN"
  "http://www.w3.org/Graphics/SVG/1.1/DTD/svg11.dtd">
<!-- Created with matplotlib (https://matplotlib.org/) -->
<svg height="278.940078pt" version="1.1" viewBox="0 0 395.86625 278.940078" width="395.86625pt" xmlns="http://www.w3.org/2000/svg" xmlns:xlink="http://www.w3.org/1999/xlink">
 <metadata>
  <rdf:RDF xmlns:cc="http://creativecommons.org/ns#" xmlns:dc="http://purl.org/dc/elements/1.1/" xmlns:rdf="http://www.w3.org/1999/02/22-rdf-syntax-ns#">
   <cc:Work>
    <dc:type rdf:resource="http://purl.org/dc/dcmitype/StillImage"/>
    <dc:date>2021-01-22T21:35:59.830062</dc:date>
    <dc:format>image/svg+xml</dc:format>
    <dc:creator>
     <cc:Agent>
      <dc:title>Matplotlib v3.3.3, https://matplotlib.org/</dc:title>
     </cc:Agent>
    </dc:creator>
   </cc:Work>
  </rdf:RDF>
 </metadata>
 <defs>
  <style type="text/css">*{stroke-linecap:butt;stroke-linejoin:round;}</style>
 </defs>
 <g id="figure_1">
  <g id="patch_1">
   <path d="M 0 278.940078 
L 395.86625 278.940078 
L 395.86625 0 
L 0 0 
z
" style="fill:#ffffff;"/>
  </g>
  <g id="axes_1">
   <g id="patch_2">
    <path d="M 20.961406 259.908047 
L 383.661406 259.908047 
L 383.661406 10.428047 
L 20.961406 10.428047 
z
" style="fill:#ffffff;"/>
   </g>
   <g id="PolyCollection_1">
    <path clip-path="url(#p7abdbb4814)" d="M 20.961406 65.868047 
L 20.961406 77.420574 
L 35.469406 78.980291 
L 49.977406 138.195647 
L 64.485406 92.72734 
L 78.993406 142.441374 
L 93.501406 165.774611 
L 108.009406 151.834738 
L 122.517406 186.354124 
L 137.025406 215.68056 
L 151.533406 240.878251 
L 166.041406 225.591945 
L 180.549406 162.051938 
L 195.057406 160.900466 
L 209.565406 191.88936 
L 224.073406 176.946663 
L 238.581406 193.47221 
L 253.089406 194.002507 
L 267.597406 161.431474 
L 282.105406 182.162456 
L 296.613406 181.912276 
L 311.121406 206.253427 
L 325.629406 210.589782 
L 340.137406 203.477649 
L 354.645406 230.886605 
L 369.153406 240.27875 
L 369.153406 65.868047 
L 369.153406 65.868047 
L 354.645406 65.868047 
L 340.137406 65.868047 
L 325.629406 65.868047 
L 311.121406 65.868047 
L 296.613406 65.868047 
L 282.105406 65.868047 
L 267.597406 65.868047 
L 253.089406 65.868047 
L 238.581406 65.868047 
L 224.073406 65.868047 
L 209.565406 65.868047 
L 195.057406 65.868047 
L 180.549406 65.868047 
L 166.041406 65.868047 
L 151.533406 65.868047 
L 137.025406 65.868047 
L 122.517406 65.868047 
L 108.009406 65.868047 
L 93.501406 65.868047 
L 78.993406 65.868047 
L 64.485406 65.868047 
L 49.977406 65.868047 
L 35.469406 65.868047 
L 20.961406 65.868047 
z
" style="fill:url(#h62bc09938e);stroke:#000000;"/>
   </g>
   <g id="PathCollection_1">
    <defs>
     <path d="M 0 3 
C 0.795609 3 1.55874 2.683901 2.12132 2.12132 
C 2.683901 1.55874 3 0.795609 3 0 
C 3 -0.795609 2.683901 -1.55874 2.12132 -2.12132 
C 1.55874 -2.683901 0.795609 -3 0 -3 
C -0.795609 -3 -1.55874 -2.683901 -2.12132 -2.12132 
C -2.683901 -1.55874 -3 -0.795609 -3 0 
C -3 0.795609 -2.683901 1.55874 -2.12132 2.12132 
C -1.55874 2.683901 -0.795609 3 0 3 
z
" id="m03d5d63f01" style="stroke:#000000;"/>
    </defs>
    <g clip-path="url(#p7abdbb4814)">
     <use style="stroke:#000000;" x="100.866468" xlink:href="#m03d5d63f01" y="42.282471"/>
     <use style="stroke:#000000;" x="147.8434" xlink:href="#m03d5d63f01" y="54.606103"/>
     <use style="stroke:#000000;" x="190.627927" xlink:href="#m03d5d63f01" y="65.113997"/>
     <use style="stroke:#000000;" x="94.133674" xlink:href="#m03d5d63f01" y="59.016294"/>
     <use style="stroke:#000000;" x="253.236925" xlink:href="#m03d5d63f01" y="64.006805"/>
     <use style="stroke:#000000;" x="196.170836" xlink:href="#m03d5d63f01" y="38.318469"/>
     <use style="stroke:#000000;" x="204.210765" xlink:href="#m03d5d63f01" y="38.963561"/>
     <use style="stroke:#000000;" x="161.287371" xlink:href="#m03d5d63f01" y="43.684885"/>
     <use style="stroke:#000000;" x="308.813711" xlink:href="#m03d5d63f01" y="49.185676"/>
     <use style="stroke:#000000;" x="231.328922" xlink:href="#m03d5d63f01" y="44.66336"/>
     <use style="stroke:#000000;" x="79.827108" xlink:href="#m03d5d63f01" y="61.177117"/>
     <use style="stroke:#000000;" x="275.124282" xlink:href="#m03d5d63f01" y="57.745443"/>
     <use style="stroke:#000000;" x="370.804083" xlink:href="#m03d5d63f01" y="51.340913"/>
     <use style="stroke:#000000;" x="202.314439" xlink:href="#m03d5d63f01" y="55.982422"/>
     <use style="stroke:#000000;" x="343.590333" xlink:href="#m03d5d63f01" y="64.601826"/>
     <use style="stroke:#000000;" x="144.864678" xlink:href="#m03d5d63f01" y="38.615033"/>
     <use style="stroke:#000000;" x="226.664581" xlink:href="#m03d5d63f01" y="53.633689"/>
     <use style="stroke:#000000;" x="176.032327" xlink:href="#m03d5d63f01" y="51.897155"/>
     <use style="stroke:#000000;" x="179.369639" xlink:href="#m03d5d63f01" y="56.899482"/>
     <use style="stroke:#000000;" x="302.619423" xlink:href="#m03d5d63f01" y="58.667922"/>
     <use style="stroke:#000000;" x="215.22504" xlink:href="#m03d5d63f01" y="55.143459"/>
     <use style="stroke:#000000;" x="366.883712" xlink:href="#m03d5d63f01" y="42.804538"/>
     <use style="stroke:#000000;" x="218.345706" xlink:href="#m03d5d63f01" y="45.445418"/>
     <use style="stroke:#000000;" x="50.737235" xlink:href="#m03d5d63f01" y="55.35633"/>
     <use style="stroke:#000000;" x="153.833795" xlink:href="#m03d5d63f01" y="65.507206"/>
    </g>
   </g>
   <g id="matplotlib.axis_1">
    <g id="xtick_1">
     <g id="line2d_1">
      <defs>
       <path d="M 0 0 
L 0 -3.5 
" id="m3f4c484afa" style="stroke:#000000;stroke-width:0.8;"/>
      </defs>
      <g>
       <use style="stroke:#000000;stroke-width:0.8;" x="20.961406" xlink:href="#m3f4c484afa" y="259.908047"/>
      </g>
     </g>
     <g id="text_1">
      <!-- 0 -->
      <g transform="translate(18.458984 269.864141)scale(0.09 -0.09)">
       <defs>
        <path d="M 27.046875 69.921875 
Q 40.625 69.921875 46.6875 58.734375 
Q 51.375 50.09375 51.375 35.0625 
Q 51.375 20.796875 47.125 11.46875 
Q 40.96875 -1.90625 27 -1.90625 
Q 14.40625 -1.90625 8.25 9.03125 
Q 3.125 18.171875 3.125 33.546875 
Q 3.125 45.453125 6.203125 54 
Q 11.96875 69.921875 27.046875 69.921875 
z
M 26.953125 6.109375 
Q 33.796875 6.109375 37.84375 12.15625 
Q 41.890625 18.21875 41.890625 34.71875 
Q 41.890625 46.625 38.953125 54.3125 
Q 36.03125 62.015625 27.59375 62.015625 
Q 19.828125 62.015625 16.234375 54.703125 
Q 12.640625 47.40625 12.640625 33.203125 
Q 12.640625 22.515625 14.9375 16.015625 
Q 18.453125 6.109375 26.953125 6.109375 
z
" id="Helvetica-48"/>
       </defs>
       <use xlink:href="#Helvetica-48"/>
      </g>
     </g>
    </g>
    <g id="xtick_2">
     <g id="line2d_2">
      <g>
       <use style="stroke:#000000;stroke-width:0.8;" x="93.501406" xlink:href="#m3f4c484afa" y="259.908047"/>
      </g>
     </g>
     <g id="text_2">
      <!-- 5 -->
      <g transform="translate(90.998984 269.864141)scale(0.09 -0.09)">
       <defs>
        <path d="M 12.359375 17.828125 
Q 13.234375 10.296875 19.34375 7.421875 
Q 22.46875 5.953125 26.5625 5.953125 
Q 34.375 5.953125 38.125 10.9375 
Q 41.890625 15.921875 41.890625 21.96875 
Q 41.890625 29.296875 37.421875 33.296875 
Q 32.953125 37.3125 26.703125 37.3125 
Q 22.171875 37.3125 18.921875 35.546875 
Q 15.671875 33.796875 13.375 30.671875 
L 5.765625 31.109375 
L 11.078125 68.75 
L 47.40625 68.75 
L 47.40625 60.25 
L 17.671875 60.25 
L 14.703125 40.828125 
Q 17.140625 42.671875 19.34375 43.609375 
Q 23.25 45.21875 28.375 45.21875 
Q 37.984375 45.21875 44.671875 39.015625 
Q 51.375 32.8125 51.375 23.296875 
Q 51.375 13.375 45.234375 5.796875 
Q 39.109375 -1.765625 25.6875 -1.765625 
Q 17.140625 -1.765625 10.5625 3.046875 
Q 4 7.859375 3.21875 17.828125 
z
" id="Helvetica-53"/>
       </defs>
       <use xlink:href="#Helvetica-53"/>
      </g>
     </g>
    </g>
    <g id="xtick_3">
     <g id="line2d_3">
      <g>
       <use style="stroke:#000000;stroke-width:0.8;" x="166.041406" xlink:href="#m3f4c484afa" y="259.908047"/>
      </g>
     </g>
     <g id="text_3">
      <!-- 10 -->
      <g transform="translate(161.036562 269.864141)scale(0.09 -0.09)">
       <defs>
        <path d="M 9.578125 49.515625 
L 9.578125 56.25 
Q 19.09375 57.171875 22.84375 59.34375 
Q 26.609375 61.53125 28.46875 69.625 
L 35.40625 69.625 
L 35.40625 0 
L 26.03125 0 
L 26.03125 49.515625 
z
" id="Helvetica-49"/>
       </defs>
       <use xlink:href="#Helvetica-49"/>
       <use x="55.615234" xlink:href="#Helvetica-48"/>
      </g>
     </g>
    </g>
    <g id="xtick_4">
     <g id="line2d_4">
      <g>
       <use style="stroke:#000000;stroke-width:0.8;" x="238.581406" xlink:href="#m3f4c484afa" y="259.908047"/>
      </g>
     </g>
     <g id="text_4">
      <!-- 15 -->
      <g transform="translate(233.576562 269.864141)scale(0.09 -0.09)">
       <use xlink:href="#Helvetica-49"/>
       <use x="55.615234" xlink:href="#Helvetica-53"/>
      </g>
     </g>
    </g>
    <g id="xtick_5">
     <g id="line2d_5">
      <g>
       <use style="stroke:#000000;stroke-width:0.8;" x="311.121406" xlink:href="#m3f4c484afa" y="259.908047"/>
      </g>
     </g>
     <g id="text_5">
      <!-- 20 -->
      <g transform="translate(306.116562 269.864141)scale(0.09 -0.09)">
       <defs>
        <path d="M 3.125 0 
Q 3.609375 9.03125 6.859375 15.71875 
Q 10.109375 22.40625 19.53125 27.875 
L 28.90625 33.296875 
Q 35.203125 36.96875 37.75 39.546875 
Q 41.75 43.609375 41.75 48.828125 
Q 41.75 54.9375 38.078125 58.515625 
Q 34.421875 62.109375 28.328125 62.109375 
Q 19.28125 62.109375 15.828125 55.28125 
Q 13.96875 51.609375 13.765625 45.125 
L 4.828125 45.125 
Q 4.984375 54.25 8.203125 60.015625 
Q 13.921875 70.171875 28.375 70.171875 
Q 40.375 70.171875 45.921875 63.671875 
Q 51.46875 57.171875 51.46875 49.21875 
Q 51.46875 40.828125 45.5625 34.859375 
Q 42.140625 31.390625 33.296875 26.46875 
L 26.609375 22.75 
Q 21.828125 20.125 19.09375 17.71875 
Q 14.203125 13.484375 12.9375 8.296875 
L 51.125 8.296875 
L 51.125 0 
L 3.125 0 
z
" id="Helvetica-50"/>
       </defs>
       <use xlink:href="#Helvetica-50"/>
       <use x="55.615234" xlink:href="#Helvetica-48"/>
      </g>
     </g>
    </g>
    <g id="xtick_6">
     <g id="line2d_6">
      <g>
       <use style="stroke:#000000;stroke-width:0.8;" x="383.661406" xlink:href="#m3f4c484afa" y="259.908047"/>
      </g>
     </g>
     <g id="text_6">
      <!-- 25 -->
      <g transform="translate(378.656562 269.864141)scale(0.09 -0.09)">
       <use xlink:href="#Helvetica-50"/>
       <use x="55.615234" xlink:href="#Helvetica-53"/>
      </g>
     </g>
    </g>
   </g>
   <g id="matplotlib.axis_2">
    <g id="ytick_1">
     <g id="line2d_7">
      <defs>
       <path d="M 0 0 
L 3.5 0 
" id="m446cab2e22" style="stroke:#000000;stroke-width:0.8;"/>
      </defs>
      <g>
       <use style="stroke:#000000;stroke-width:0.8;" x="20.961406" xlink:href="#m446cab2e22" y="259.908047"/>
      </g>
     </g>
     <g id="text_7">
      <!-- −7 -->
      <g transform="translate(7.2 263.136094)scale(0.09 -0.09)">
       <defs>
        <path d="M 55.421875 29.59375 
L 55.421875 21.390625 
L 4.5 21.390625 
L 4.5 29.59375 
z
" id="Helvetica-8722"/>
        <path d="M 52.296875 68.75 
L 52.296875 61.078125 
Q 48.921875 57.8125 43.328125 49.703125 
Q 37.75 41.609375 33.453125 32.234375 
Q 29.203125 23.09375 27 15.578125 
Q 25.59375 10.75 23.34375 0 
L 13.625 0 
Q 16.9375 20.015625 28.265625 39.84375 
Q 34.96875 51.46875 42.328125 59.90625 
L 3.65625 59.90625 
L 3.65625 68.75 
z
" id="Helvetica-55"/>
       </defs>
       <use xlink:href="#Helvetica-8722"/>
       <use x="58.398438" xlink:href="#Helvetica-55"/>
      </g>
     </g>
    </g>
    <g id="ytick_2">
     <g id="line2d_8">
      <g>
       <use style="stroke:#000000;stroke-width:0.8;" x="20.961406" xlink:href="#m446cab2e22" y="232.188047"/>
      </g>
     </g>
     <g id="text_8">
      <!-- −6 -->
      <g transform="translate(7.2 235.416094)scale(0.09 -0.09)">
       <defs>
        <path d="M 29.25 70.21875 
Q 40.96875 70.21875 45.578125 64.140625 
Q 50.203125 58.0625 50.203125 51.609375 
L 41.5 51.609375 
Q 40.71875 55.765625 39.015625 58.109375 
Q 35.84375 62.5 29.390625 62.5 
Q 22.015625 62.5 17.671875 55.6875 
Q 13.328125 48.875 12.84375 36.1875 
Q 15.875 40.625 20.453125 42.828125 
Q 24.65625 44.78125 29.828125 44.78125 
Q 38.625 44.78125 45.15625 39.15625 
Q 51.703125 33.546875 51.703125 22.40625 
Q 51.703125 12.890625 45.5 5.53125 
Q 39.3125 -1.8125 27.828125 -1.8125 
Q 18.015625 -1.8125 10.890625 5.640625 
Q 3.765625 13.09375 3.765625 30.71875 
Q 3.765625 43.75 6.9375 52.828125 
Q 13.03125 70.21875 29.25 70.21875 
z
M 28.609375 6 
Q 35.546875 6 38.984375 10.65625 
Q 42.4375 15.328125 42.4375 21.6875 
Q 42.4375 27.046875 39.359375 31.90625 
Q 36.28125 36.765625 28.171875 36.765625 
Q 22.515625 36.765625 18.234375 33 
Q 13.96875 29.25 13.96875 21.6875 
Q 13.96875 15.046875 17.84375 10.515625 
Q 21.734375 6 28.609375 6 
z
" id="Helvetica-54"/>
       </defs>
       <use xlink:href="#Helvetica-8722"/>
       <use x="58.398438" xlink:href="#Helvetica-54"/>
      </g>
     </g>
    </g>
    <g id="ytick_3">
     <g id="line2d_9">
      <g>
       <use style="stroke:#000000;stroke-width:0.8;" x="20.961406" xlink:href="#m446cab2e22" y="204.468047"/>
      </g>
     </g>
     <g id="text_9">
      <!-- −5 -->
      <g transform="translate(7.2 207.696094)scale(0.09 -0.09)">
       <use xlink:href="#Helvetica-8722"/>
       <use x="58.398438" xlink:href="#Helvetica-53"/>
      </g>
     </g>
    </g>
    <g id="ytick_4">
     <g id="line2d_10">
      <g>
       <use style="stroke:#000000;stroke-width:0.8;" x="20.961406" xlink:href="#m446cab2e22" y="176.748047"/>
      </g>
     </g>
     <g id="text_10">
      <!-- −4 -->
      <g transform="translate(7.2 179.976094)scale(0.09 -0.09)">
       <defs>
        <path d="M 33.0625 24.75 
L 33.0625 56.453125 
L 10.640625 24.75 
z
M 33.203125 0 
L 33.203125 17.09375 
L 2.546875 17.09375 
L 2.546875 25.6875 
L 34.578125 70.125 
L 42 70.125 
L 42 24.75 
L 52.296875 24.75 
L 52.296875 17.09375 
L 42 17.09375 
L 42 0 
z
" id="Helvetica-52"/>
       </defs>
       <use xlink:href="#Helvetica-8722"/>
       <use x="58.398438" xlink:href="#Helvetica-52"/>
      </g>
     </g>
    </g>
    <g id="ytick_5">
     <g id="line2d_11">
      <g>
       <use style="stroke:#000000;stroke-width:0.8;" x="20.961406" xlink:href="#m446cab2e22" y="149.028047"/>
      </g>
     </g>
     <g id="text_11">
      <!-- −3 -->
      <g transform="translate(7.2 152.256094)scale(0.09 -0.09)">
       <defs>
        <path d="M 25.984375 -1.90625 
Q 13.578125 -1.90625 7.984375 4.90625 
Q 2.390625 11.71875 2.390625 21.484375 
L 11.578125 21.484375 
Q 12.15625 14.703125 14.109375 11.625 
Q 17.53125 6.109375 26.46875 6.109375 
Q 33.40625 6.109375 37.59375 9.8125 
Q 41.796875 13.53125 41.796875 19.390625 
Q 41.796875 26.609375 37.375 29.484375 
Q 32.953125 32.375 25.09375 32.375 
Q 24.21875 32.375 23.3125 32.34375 
Q 22.40625 32.328125 21.484375 32.28125 
L 21.484375 40.046875 
Q 22.859375 39.890625 23.78125 39.84375 
Q 24.703125 39.796875 25.78125 39.796875 
Q 30.71875 39.796875 33.890625 41.359375 
Q 39.453125 44.09375 39.453125 51.125 
Q 39.453125 56.34375 35.734375 59.171875 
Q 32.03125 62.015625 27.09375 62.015625 
Q 18.3125 62.015625 14.9375 56.15625 
Q 13.09375 52.9375 12.84375 46.96875 
L 4.15625 46.96875 
Q 4.15625 54.78125 7.28125 60.25 
Q 12.640625 70.015625 26.171875 70.015625 
Q 36.859375 70.015625 42.71875 65.25 
Q 48.578125 60.5 48.578125 51.46875 
Q 48.578125 45.015625 45.125 41.015625 
Q 42.96875 38.53125 39.546875 37.109375 
Q 45.0625 35.59375 48.15625 31.265625 
Q 51.265625 26.953125 51.265625 20.703125 
Q 51.265625 10.6875 44.671875 4.390625 
Q 38.09375 -1.90625 25.984375 -1.90625 
z
" id="Helvetica-51"/>
       </defs>
       <use xlink:href="#Helvetica-8722"/>
       <use x="58.398438" xlink:href="#Helvetica-51"/>
      </g>
     </g>
    </g>
    <g id="ytick_6">
     <g id="line2d_12">
      <g>
       <use style="stroke:#000000;stroke-width:0.8;" x="20.961406" xlink:href="#m446cab2e22" y="121.308047"/>
      </g>
     </g>
     <g id="text_12">
      <!-- −2 -->
      <g transform="translate(7.2 124.536094)scale(0.09 -0.09)">
       <use xlink:href="#Helvetica-8722"/>
       <use x="58.398438" xlink:href="#Helvetica-50"/>
      </g>
     </g>
    </g>
    <g id="ytick_7">
     <g id="line2d_13">
      <g>
       <use style="stroke:#000000;stroke-width:0.8;" x="20.961406" xlink:href="#m446cab2e22" y="93.588047"/>
      </g>
     </g>
     <g id="text_13">
      <!-- −1 -->
      <g transform="translate(7.2 96.816094)scale(0.09 -0.09)">
       <use xlink:href="#Helvetica-8722"/>
       <use x="58.398438" xlink:href="#Helvetica-49"/>
      </g>
     </g>
    </g>
    <g id="ytick_8">
     <g id="line2d_14">
      <g>
       <use style="stroke:#000000;stroke-width:0.8;" x="20.961406" xlink:href="#m446cab2e22" y="65.868047"/>
      </g>
     </g>
     <g id="text_14">
      <!-- 0 -->
      <g transform="translate(12.456562 69.096094)scale(0.09 -0.09)">
       <use xlink:href="#Helvetica-48"/>
      </g>
     </g>
    </g>
    <g id="ytick_9">
     <g id="line2d_15">
      <g>
       <use style="stroke:#000000;stroke-width:0.8;" x="20.961406" xlink:href="#m446cab2e22" y="38.148047"/>
      </g>
     </g>
     <g id="text_15">
      <!-- 1 -->
      <g transform="translate(12.456562 41.376094)scale(0.09 -0.09)">
       <use xlink:href="#Helvetica-49"/>
      </g>
     </g>
    </g>
    <g id="ytick_10">
     <g id="line2d_16">
      <g>
       <use style="stroke:#000000;stroke-width:0.8;" x="20.961406" xlink:href="#m446cab2e22" y="10.428047"/>
      </g>
     </g>
     <g id="text_16">
      <!-- 2 -->
      <g transform="translate(12.456562 13.656094)scale(0.09 -0.09)">
       <use xlink:href="#Helvetica-50"/>
      </g>
     </g>
    </g>
   </g>
   <g id="line2d_17">
    <path clip-path="url(#p7abdbb4814)" d="M 20.961406 77.420574 
L 35.469406 78.980291 
L 49.977406 138.195647 
L 64.485406 92.72734 
L 78.993406 142.441374 
L 93.501406 165.774611 
L 108.009406 151.834738 
L 122.517406 186.354124 
L 137.025406 215.68056 
L 151.533406 240.878251 
L 166.041406 225.591945 
L 180.549406 162.051938 
L 195.057406 160.900466 
L 209.565406 191.88936 
L 224.073406 176.946663 
L 238.581406 193.47221 
L 253.089406 194.002507 
L 267.597406 161.431474 
L 282.105406 182.162456 
L 296.613406 181.912276 
L 311.121406 206.253427 
L 325.629406 210.589782 
L 340.137406 203.477649 
L 354.645406 230.886605 
L 369.153406 240.27875 
" style="fill:none;stroke:#000000;stroke-linecap:square;"/>
    <defs>
     <path d="M -3 3 
L 3 3 
L 3 -3 
L -3 -3 
z
" id="mceb3644ca1" style="stroke:#000000;stroke-linejoin:miter;"/>
    </defs>
    <g clip-path="url(#p7abdbb4814)">
     <use style="stroke:#000000;stroke-linejoin:miter;" x="20.961406" xlink:href="#mceb3644ca1" y="77.420574"/>
     <use style="stroke:#000000;stroke-linejoin:miter;" x="35.469406" xlink:href="#mceb3644ca1" y="78.980291"/>
     <use style="stroke:#000000;stroke-linejoin:miter;" x="49.977406" xlink:href="#mceb3644ca1" y="138.195647"/>
     <use style="stroke:#000000;stroke-linejoin:miter;" x="64.485406" xlink:href="#mceb3644ca1" y="92.72734"/>
     <use style="stroke:#000000;stroke-linejoin:miter;" x="78.993406" xlink:href="#mceb3644ca1" y="142.441374"/>
     <use style="stroke:#000000;stroke-linejoin:miter;" x="93.501406" xlink:href="#mceb3644ca1" y="165.774611"/>
     <use style="stroke:#000000;stroke-linejoin:miter;" x="108.009406" xlink:href="#mceb3644ca1" y="151.834738"/>
     <use style="stroke:#000000;stroke-linejoin:miter;" x="122.517406" xlink:href="#mceb3644ca1" y="186.354124"/>
     <use style="stroke:#000000;stroke-linejoin:miter;" x="137.025406" xlink:href="#mceb3644ca1" y="215.68056"/>
     <use style="stroke:#000000;stroke-linejoin:miter;" x="151.533406" xlink:href="#mceb3644ca1" y="240.878251"/>
     <use style="stroke:#000000;stroke-linejoin:miter;" x="166.041406" xlink:href="#mceb3644ca1" y="225.591945"/>
     <use style="stroke:#000000;stroke-linejoin:miter;" x="180.549406" xlink:href="#mceb3644ca1" y="162.051938"/>
     <use style="stroke:#000000;stroke-linejoin:miter;" x="195.057406" xlink:href="#mceb3644ca1" y="160.900466"/>
     <use style="stroke:#000000;stroke-linejoin:miter;" x="209.565406" xlink:href="#mceb3644ca1" y="191.88936"/>
     <use style="stroke:#000000;stroke-linejoin:miter;" x="224.073406" xlink:href="#mceb3644ca1" y="176.946663"/>
     <use style="stroke:#000000;stroke-linejoin:miter;" x="238.581406" xlink:href="#mceb3644ca1" y="193.47221"/>
     <use style="stroke:#000000;stroke-linejoin:miter;" x="253.089406" xlink:href="#mceb3644ca1" y="194.002507"/>
     <use style="stroke:#000000;stroke-linejoin:miter;" x="267.597406" xlink:href="#mceb3644ca1" y="161.431474"/>
     <use style="stroke:#000000;stroke-linejoin:miter;" x="282.105406" xlink:href="#mceb3644ca1" y="182.162456"/>
     <use style="stroke:#000000;stroke-linejoin:miter;" x="296.613406" xlink:href="#mceb3644ca1" y="181.912276"/>
     <use style="stroke:#000000;stroke-linejoin:miter;" x="311.121406" xlink:href="#mceb3644ca1" y="206.253427"/>
     <use style="stroke:#000000;stroke-linejoin:miter;" x="325.629406" xlink:href="#mceb3644ca1" y="210.589782"/>
     <use style="stroke:#000000;stroke-linejoin:miter;" x="340.137406" xlink:href="#mceb3644ca1" y="203.477649"/>
     <use style="stroke:#000000;stroke-linejoin:miter;" x="354.645406" xlink:href="#mceb3644ca1" y="230.886605"/>
     <use style="stroke:#000000;stroke-linejoin:miter;" x="369.153406" xlink:href="#mceb3644ca1" y="240.27875"/>
    </g>
   </g>
   <g id="patch_3">
    <path d="M 20.961406 259.908047 
L 20.961406 10.428047 
" style="fill:none;stroke:#000000;stroke-linecap:square;stroke-linejoin:miter;stroke-width:0.8;"/>
   </g>
   <g id="patch_4">
    <path d="M 20.961406 259.908047 
L 383.661406 259.908047 
" style="fill:none;stroke:#000000;stroke-linecap:square;stroke-linejoin:miter;stroke-width:0.8;"/>
   </g>
   <g id="legend_1">
    <g id="patch_5">
     <path d="M 25.961406 254.908047 
L 91.969219 254.908047 
L 91.969219 209.134609 
L 25.961406 209.134609 
z
" style="fill:#ffffff;stroke:#000000;stroke-linejoin:miter;"/>
    </g>
    <g id="line2d_18">
     <path d="M 29.961406 216.808047 
L 49.961406 216.808047 
" style="fill:none;stroke:#000000;stroke-linecap:square;"/>
    </g>
    <g id="line2d_19">
     <g>
      <use style="stroke:#000000;stroke-linejoin:miter;" x="39.961406" xlink:href="#mceb3644ca1" y="216.808047"/>
     </g>
    </g>
    <g id="text_17">
     <!-- plot -->
     <g transform="translate(57.961406 220.308047)scale(0.1 -0.1)">
      <defs>
       <path d="M 28.515625 5.90625 
Q 34.671875 5.90625 38.75 11.0625 
Q 42.828125 16.21875 42.828125 26.46875 
Q 42.828125 32.71875 41.015625 37.203125 
Q 37.59375 45.84375 28.515625 45.84375 
Q 19.390625 45.84375 16.015625 36.71875 
Q 14.203125 31.84375 14.203125 24.3125 
Q 14.203125 18.265625 16.015625 14.015625 
Q 19.4375 5.90625 28.515625 5.90625 
z
M 5.765625 52.046875 
L 14.3125 52.046875 
L 14.3125 45.125 
Q 16.9375 48.6875 20.0625 50.640625 
Q 24.515625 53.5625 30.515625 53.5625 
Q 39.40625 53.5625 45.609375 46.75 
Q 51.8125 39.9375 51.8125 27.296875 
Q 51.8125 10.203125 42.875 2.875 
Q 37.203125 -1.765625 29.6875 -1.765625 
Q 23.78125 -1.765625 19.78125 0.828125 
Q 17.4375 2.296875 14.546875 5.859375 
L 14.546875 -20.84375 
L 5.765625 -20.84375 
z
" id="Helvetica-112"/>
       <path d="M 6.6875 71.734375 
L 15.484375 71.734375 
L 15.484375 0 
L 6.6875 0 
z
" id="Helvetica-108"/>
       <path d="M 27.203125 5.671875 
Q 35.9375 5.671875 39.1875 12.28125 
Q 42.4375 18.890625 42.4375 27 
Q 42.4375 34.328125 40.09375 38.921875 
Q 36.375 46.140625 27.296875 46.140625 
Q 19.234375 46.140625 15.578125 39.984375 
Q 11.921875 33.84375 11.921875 25.140625 
Q 11.921875 16.796875 15.578125 11.234375 
Q 19.234375 5.671875 27.203125 5.671875 
z
M 27.546875 53.8125 
Q 37.640625 53.8125 44.625 47.0625 
Q 51.609375 40.328125 51.609375 27.25 
Q 51.609375 14.59375 45.453125 6.34375 
Q 39.3125 -1.90625 26.375 -1.90625 
Q 15.578125 -1.90625 9.21875 5.390625 
Q 2.875 12.703125 2.875 25 
Q 2.875 38.1875 9.5625 46 
Q 16.265625 53.8125 27.546875 53.8125 
z
M 27.25 53.5625 
z
" id="Helvetica-111"/>
       <path d="M 8.203125 66.890625 
L 17.09375 66.890625 
L 17.09375 52.296875 
L 25.4375 52.296875 
L 25.4375 45.125 
L 17.09375 45.125 
L 17.09375 10.984375 
Q 17.09375 8.25 18.953125 7.328125 
Q 19.96875 6.78125 22.359375 6.78125 
Q 23 6.78125 23.734375 6.8125 
Q 24.46875 6.84375 25.4375 6.9375 
L 25.4375 0 
Q 23.921875 -0.4375 22.28125 -0.625 
Q 20.65625 -0.828125 18.75 -0.828125 
Q 12.59375 -0.828125 10.390625 2.3125 
Q 8.203125 5.46875 8.203125 10.5 
L 8.203125 45.125 
L 1.125 45.125 
L 1.125 52.296875 
L 8.203125 52.296875 
z
" id="Helvetica-116"/>
      </defs>
      <use xlink:href="#Helvetica-112"/>
      <use x="55.615234" xlink:href="#Helvetica-108"/>
      <use x="77.832031" xlink:href="#Helvetica-111"/>
      <use x="133.447266" xlink:href="#Helvetica-116"/>
     </g>
    </g>
    <g id="patch_6">
     <path d="M 29.961406 234.565859 
L 49.961406 234.565859 
L 49.961406 227.565859 
L 29.961406 227.565859 
z
" style="fill:url(#h62bc09938e);stroke:#000000;stroke-linejoin:miter;"/>
    </g>
    <g id="text_18">
     <!-- fill -->
     <g transform="translate(57.961406 234.565859)scale(0.1 -0.1)">
      <defs>
       <path d="M 8.640625 60.25 
Q 8.84375 65.71875 10.546875 68.265625 
Q 13.625 72.75 22.40625 72.75 
Q 23.25 72.75 24.125 72.703125 
Q 25 72.65625 26.125 72.5625 
L 26.125 64.546875 
Q 24.75 64.65625 24.140625 64.671875 
Q 23.53125 64.703125 23 64.703125 
Q 19 64.703125 18.21875 62.625 
Q 17.4375 60.546875 17.4375 52.046875 
L 26.125 52.046875 
L 26.125 45.125 
L 17.328125 45.125 
L 17.328125 0 
L 8.640625 0 
L 8.640625 45.125 
L 1.375 45.125 
L 1.375 52.046875 
L 8.640625 52.046875 
L 8.640625 60.25 
z
" id="Helvetica-102"/>
       <path d="M 6.453125 52.046875 
L 15.375 52.046875 
L 15.375 0 
L 6.453125 0 
z
M 6.453125 71.734375 
L 15.375 71.734375 
L 15.375 61.765625 
L 6.453125 61.765625 
z
" id="Helvetica-105"/>
      </defs>
      <use xlink:href="#Helvetica-102"/>
      <use x="27.783203" xlink:href="#Helvetica-105"/>
      <use x="50" xlink:href="#Helvetica-108"/>
      <use x="72.216797" xlink:href="#Helvetica-108"/>
     </g>
    </g>
    <g id="PathCollection_2">
     <g>
      <use style="stroke:#000000;" x="39.961406" xlink:href="#m03d5d63f01" y="246.198672"/>
     </g>
    </g>
    <g id="text_19">
     <!-- scatter -->
     <g transform="translate(57.961406 248.823672)scale(0.1 -0.1)">
      <defs>
       <path d="M 11.671875 16.40625 
Q 12.0625 12.015625 13.875 9.671875 
Q 17.1875 5.421875 25.390625 5.421875 
Q 30.28125 5.421875 33.984375 7.546875 
Q 37.703125 9.671875 37.703125 14.109375 
Q 37.703125 17.484375 34.71875 19.234375 
Q 32.8125 20.3125 27.203125 21.734375 
L 20.21875 23.484375 
Q 13.53125 25.140625 10.359375 27.203125 
Q 4.6875 30.765625 4.6875 37.0625 
Q 4.6875 44.484375 10.03125 49.0625 
Q 15.375 53.65625 24.421875 53.65625 
Q 36.234375 53.65625 41.453125 46.734375 
Q 44.734375 42.328125 44.625 37.25 
L 36.328125 37.25 
Q 36.078125 40.234375 34.234375 42.671875 
Q 31.203125 46.140625 23.734375 46.140625 
Q 18.75 46.140625 16.1875 44.234375 
Q 13.625 42.328125 13.625 39.203125 
Q 13.625 35.796875 17 33.734375 
Q 18.953125 32.515625 22.75 31.59375 
L 28.5625 30.171875 
Q 38.03125 27.875 41.265625 25.734375 
Q 46.390625 22.359375 46.390625 15.140625 
Q 46.390625 8.15625 41.09375 3.078125 
Q 35.796875 -2 24.953125 -2 
Q 13.28125 -2 8.421875 3.296875 
Q 3.5625 8.59375 3.21875 16.40625 
z
M 24.65625 53.5625 
z
" id="Helvetica-115"/>
       <path d="M 26.609375 53.8125 
Q 35.453125 53.8125 40.984375 49.515625 
Q 46.53125 45.21875 47.65625 34.71875 
L 39.109375 34.71875 
Q 38.328125 39.546875 35.546875 42.75 
Q 32.765625 45.953125 26.609375 45.953125 
Q 18.21875 45.953125 14.59375 37.75 
Q 12.25 32.421875 12.25 24.609375 
Q 12.25 16.75 15.5625 11.375 
Q 18.890625 6 26.03125 6 
Q 31.5 6 34.6875 9.34375 
Q 37.890625 12.703125 39.109375 18.5 
L 47.65625 18.5 
Q 46.1875 8.109375 40.328125 3.296875 
Q 34.46875 -1.515625 25.34375 -1.515625 
Q 15.09375 -1.515625 8.984375 5.984375 
Q 2.875 13.484375 2.875 24.703125 
Q 2.875 38.484375 9.5625 46.140625 
Q 16.265625 53.8125 26.609375 53.8125 
z
M 25.25 53.5625 
z
" id="Helvetica-99"/>
       <path d="M 13.1875 13.921875 
Q 13.1875 10.109375 15.96875 7.90625 
Q 18.75 5.71875 22.5625 5.71875 
Q 27.203125 5.71875 31.546875 7.859375 
Q 38.875 11.421875 38.875 19.53125 
L 38.875 26.609375 
Q 37.25 25.59375 34.703125 24.90625 
Q 32.171875 24.21875 29.734375 23.921875 
L 24.421875 23.25 
Q 19.625 22.609375 17.234375 21.234375 
Q 13.1875 18.953125 13.1875 13.921875 
z
M 34.46875 31.6875 
Q 37.5 32.078125 38.53125 34.234375 
Q 39.109375 35.40625 39.109375 37.59375 
Q 39.109375 42.09375 35.90625 44.109375 
Q 32.71875 46.140625 26.765625 46.140625 
Q 19.875 46.140625 17 42.4375 
Q 15.375 40.375 14.890625 36.328125 
L 6.6875 36.328125 
Q 6.9375 46 12.96875 49.78125 
Q 19 53.5625 26.953125 53.5625 
Q 36.1875 53.5625 41.9375 50.046875 
Q 47.65625 46.53125 47.65625 39.109375 
L 47.65625 8.984375 
Q 47.65625 7.625 48.21875 6.78125 
Q 48.78125 5.953125 50.59375 5.953125 
Q 51.171875 5.953125 51.90625 6.03125 
Q 52.640625 6.109375 53.46875 6.25 
L 53.46875 -0.25 
Q 51.421875 -0.828125 50.34375 -0.96875 
Q 49.265625 -1.125 47.40625 -1.125 
Q 42.875 -1.125 40.828125 2.09375 
Q 39.75 3.8125 39.3125 6.9375 
Q 36.625 3.421875 31.59375 0.828125 
Q 26.5625 -1.765625 20.515625 -1.765625 
Q 13.234375 -1.765625 8.609375 2.65625 
Q 4 7.078125 4 13.71875 
Q 4 21 8.546875 25 
Q 13.09375 29 20.453125 29.9375 
z
M 27.203125 53.5625 
z
" id="Helvetica-97"/>
       <path d="M 28.21875 53.46875 
Q 33.796875 53.46875 39.015625 50.859375 
Q 44.234375 48.25 46.96875 44.09375 
Q 49.609375 40.140625 50.484375 34.859375 
Q 51.265625 31.25 51.265625 23.34375 
L 12.9375 23.34375 
Q 13.1875 15.375 16.703125 10.5625 
Q 20.21875 5.765625 27.59375 5.765625 
Q 34.46875 5.765625 38.578125 10.296875 
Q 40.921875 12.9375 41.890625 16.40625 
L 50.53125 16.40625 
Q 50.203125 13.53125 48.265625 9.984375 
Q 46.34375 6.453125 43.953125 4.203125 
Q 39.9375 0.296875 34.03125 -1.078125 
Q 30.859375 -1.859375 26.859375 -1.859375 
Q 17.09375 -1.859375 10.296875 5.25 
Q 3.515625 12.359375 3.515625 25.140625 
Q 3.515625 37.75 10.34375 45.609375 
Q 17.1875 53.46875 28.21875 53.46875 
z
M 42.234375 30.328125 
Q 41.703125 36.03125 39.75 39.453125 
Q 36.140625 45.796875 27.6875 45.796875 
Q 21.625 45.796875 17.515625 41.421875 
Q 13.421875 37.0625 13.1875 30.328125 
z
M 27.390625 53.5625 
z
" id="Helvetica-101"/>
       <path d="M 6.6875 52.296875 
L 15.046875 52.296875 
L 15.046875 43.265625 
Q 16.0625 45.90625 20.0625 49.6875 
Q 24.078125 53.46875 29.296875 53.46875 
Q 29.546875 53.46875 30.125 53.421875 
Q 30.71875 53.375 32.125 53.21875 
L 32.125 43.953125 
Q 31.34375 44.09375 30.6875 44.140625 
Q 30.03125 44.1875 29.25 44.1875 
Q 22.609375 44.1875 19.046875 39.90625 
Q 15.484375 35.640625 15.484375 30.078125 
L 15.484375 0 
L 6.6875 0 
z
" id="Helvetica-114"/>
      </defs>
      <use xlink:href="#Helvetica-115"/>
      <use x="50" xlink:href="#Helvetica-99"/>
      <use x="100" xlink:href="#Helvetica-97"/>
      <use x="155.615234" xlink:href="#Helvetica-116"/>
      <use x="183.398438" xlink:href="#Helvetica-116"/>
      <use x="211.181641" xlink:href="#Helvetica-101"/>
      <use x="266.796875" xlink:href="#Helvetica-114"/>
     </g>
    </g>
   </g>
  </g>
 </g>
 <defs>
  <clipPath id="p7abdbb4814">
   <rect height="249.48" width="362.7" x="20.961406" y="10.428047"/>
  </clipPath>
 </defs>
 <defs>
  <pattern height="72" id="h62bc09938e" patternUnits="userSpaceOnUse" width="72" x="0" y="0">
   <rect fill="none" height="73" width="73" x="0" y="0"/>
   <path d="M -36 36 
L 36 -36 
M -30 42 
L 42 -30 
M -24 48 
L 48 -24 
M -18 54 
L 54 -18 
M -12 60 
L 60 -12 
M -6 66 
L 66 -6 
M 0 72 
L 72 0 
M 6 78 
L 78 6 
M 12 84 
L 84 12 
M 18 90 
L 90 18 
M 24 96 
L 96 24 
M 30 102 
L 102 30 
M 36 108 
L 108 36 
" style="fill:#000000;stroke:#000000;stroke-linecap:butt;stroke-linejoin:miter;stroke-width:0.5;"/>
  </pattern>
 </defs>
</svg>
